<svg width="720" height="1569" viewBox="0 0 720 1569" fill="none" xmlns="http://www.w3.org/2000/svg">
<rect width="720" height="1273" transform="translate(0 296)" fill="white"/>
<path d="M488.695 216.429L365.626 3.24798C363.128 -1.08266 356.879 -1.08266 354.376 3.24798L231.301 216.429H488.701H488.695Z" fill="#C11313"/>
<path d="M589.062 390.273L493.384 224.546H226.607L130.93 390.273H589.062Z" fill="#DD5C5C"/>
<path d="M593.749 398.391H126.246L40.8789 546.257C38.3814 550.587 41.5033 556.001 46.504 556.001H673.496C678.497 556.001 681.619 550.587 679.121 546.257L593.754 398.391H593.749Z" fill="#EB8E8E"/>
<path d="M383.676 108.206H388.696C387.686 107.548 386.788 106.827 386.13 106.105C385.521 106.794 384.671 107.532 383.676 108.206ZM383.339 109.377V108.43C382.217 109.168 380.934 109.842 379.666 110.339C379.49 109.97 379.121 109.393 378.816 109.072C381.463 108.142 384.029 106.41 385.296 104.806H386.82C388.568 106.682 391.166 108.174 393.62 108.896C393.267 109.264 392.915 109.842 392.69 110.259C391.519 109.81 390.22 109.152 389.017 108.414V109.377H383.339ZM390.044 110.275L391.054 110.884C390.461 112.119 389.402 113.659 388.536 114.621C388.231 114.413 387.734 114.092 387.397 113.932C387.942 113.29 388.552 112.408 389.001 111.606H381.03V110.339H389.803L390.044 110.275ZM383.869 113.707L384.799 112.745C385.922 113.242 387.285 114.092 387.926 114.814L386.9 115.872C386.323 115.167 385.007 114.253 383.869 113.707ZM380.083 118.952L378.848 118.086C379.971 117.268 380.661 115.872 381.014 114.477L382.345 114.91C381.944 116.418 381.318 117.99 380.083 118.952ZM385.344 117.941H387.638C388.263 117.941 388.36 117.733 388.424 116.129C388.744 116.354 389.354 116.578 389.755 116.674C389.594 118.759 389.177 119.289 387.766 119.289H385.184C383.468 119.289 383.035 118.856 383.035 117.444V114.589H384.51V117.444C384.51 117.877 384.639 117.941 385.344 117.941ZM389.322 115.022L390.541 114.285C391.744 115.375 393.011 116.867 393.524 117.974L392.177 118.808C391.712 117.717 390.509 116.145 389.322 115.022Z" fill="white"/>
<path d="M366.289 114.83L366.546 116.242C364.797 116.851 362.937 117.477 361.493 117.942L361.141 116.418C361.718 116.258 362.424 116.065 363.194 115.825V111.751H361.461V110.371H363.194V107.18H361.301V105.8H366.401V107.18H364.621V110.371H366.145V111.751H364.621V115.376C365.166 115.199 365.744 115.023 366.289 114.83ZM368.454 109.714V111.462H370.555V109.714H368.454ZM368.454 106.779V108.511H370.555V106.779H368.454ZM373.875 108.511V106.779H371.822V108.511H373.875ZM373.875 111.462V109.714H371.822V111.462H373.875ZM371.951 117.637H376.025V119H365.776V117.637H370.427V115.728H366.947V114.381H370.427V112.729H367.091V105.512H375.303V112.729H371.951V114.381H375.511V115.728H371.951V117.637Z" fill="white"/>
<path d="M353.139 108.767H348.824C349.113 109.232 349.402 109.81 349.514 110.195L349.049 110.291H352.433C352.674 109.858 352.93 109.28 353.139 108.767ZM357.967 115.792H352.946C354.358 116.787 356.427 117.604 358.384 117.973C358.047 118.294 357.614 118.904 357.389 119.305C355.304 118.743 353.155 117.669 351.647 116.289V119.513H350.188V116.402C348.664 117.685 346.499 118.727 344.494 119.289C344.269 118.904 343.852 118.342 343.516 118.022C345.424 117.621 347.509 116.787 348.921 115.792H343.965V114.541H350.188V113.563H345.456V112.44H350.188V111.478H344.67V110.291H347.958C347.814 109.842 347.541 109.264 347.285 108.831L347.67 108.767H344.029V107.516H346.403C346.162 106.891 345.681 106.008 345.232 105.351L346.531 104.918C347.028 105.607 347.589 106.586 347.814 107.211L346.996 107.516H348.76V104.773H350.156V107.516H351.744V104.773H353.155V107.516H354.887L354.278 107.324C354.663 106.682 355.16 105.672 355.4 104.95L356.94 105.335C356.507 106.121 356.026 106.923 355.609 107.516H357.918V108.767H354.823C354.518 109.312 354.197 109.842 353.925 110.291H357.325V111.478H351.647V112.44H356.571V113.563H351.647V114.541H357.967V115.792Z" fill="white"/>
<path d="M332.385 104.726H333.909C335.609 107.244 338.319 109.553 340.853 110.756C340.485 111.141 340.116 111.638 339.859 112.087C337.373 110.66 334.63 108.286 333.219 106.217C331.936 108.222 329.418 110.58 326.739 112.152C326.547 111.799 326.114 111.269 325.793 110.949C328.552 109.441 331.182 106.859 332.385 104.726ZM334.181 114.076V117.717H340.084V119.064H326.547V117.717H328.439V111.959H329.899V117.717H332.609V109.136H334.181V112.729H338.624V114.076H334.181Z" fill="white"/>
<path d="M383.305 269.814V274.032C384.171 273.904 385.053 273.743 385.936 273.599L386 274.946C383.658 275.363 381.14 275.78 379.328 276.101L378.991 274.705C379.809 274.593 380.803 274.449 381.91 274.272V269.814H379.247V268.498H381.91V267.055H380.162V266.413C379.969 266.606 379.761 266.798 379.536 266.975C379.344 266.67 378.879 266.173 378.59 265.964C380.146 264.729 381.252 263.077 381.846 261.746H383.209C384.3 262.644 385.679 263.927 386.353 264.842L385.326 266.012C384.781 265.21 383.722 263.992 382.728 263.141C382.247 263.959 381.605 264.89 380.771 265.788H385.118V267.055H383.305V268.498H385.904V269.814H383.305ZM379.536 270.808L380.611 270.551C380.932 271.45 381.188 272.62 381.284 273.39L380.178 273.711C380.114 272.925 379.825 271.738 379.536 270.808ZM384.797 273.438L383.738 273.15C384.011 272.412 384.348 271.209 384.492 270.391L385.743 270.712C385.422 271.658 385.07 272.749 384.797 273.438ZM393.634 266.927V268.402H390.523V276.438H388.983V268.402H385.823V266.927H388.983V261.874H390.523V266.927H393.634Z" fill="white"/>
<path d="M375.722 265.837H367.847C367.799 266.623 367.734 267.425 367.638 268.21H373.893C373.893 268.21 373.877 268.676 373.845 268.9C373.557 273.359 373.22 275.139 372.594 275.797C372.177 276.246 371.744 276.358 371.087 276.406C370.509 276.454 369.451 276.438 368.376 276.39C368.36 275.957 368.151 275.348 367.863 274.931C368.969 275.027 370.092 275.043 370.541 275.043C370.894 275.043 371.103 275.011 371.311 274.834C371.744 274.466 372.049 272.958 372.273 269.622H367.398C366.82 272.397 365.521 274.963 362.297 276.551C362.073 276.15 361.624 275.604 361.223 275.316C365.585 273.311 366.018 269.397 366.195 265.837H361.447V264.409H367.75V261.683H369.274V264.409H375.722V265.837Z" fill="white"/>
<path d="M355.077 274.626V272.781H347.041V274.626H355.077ZM348.196 267.665V269.204H353.746V267.665H348.196ZM355.205 270.327H351.548C351.388 270.728 351.227 271.129 351.083 271.482H356.568V276.47H355.077V275.909H347.041V276.486H345.614V271.482H349.624C349.736 271.113 349.832 270.696 349.928 270.327H346.817V266.558H355.205V270.327ZM355.285 264.248H357.675V267.488H356.248V265.515H345.758V267.488H344.379V264.248H346.496C346.207 263.703 345.726 263.029 345.293 262.516L346.592 261.971C347.138 262.58 347.779 263.43 348.052 264.024L347.555 264.248H350.393C350.169 263.639 349.688 262.789 349.255 262.147L350.554 261.698C351.051 262.356 351.596 263.286 351.805 263.88L350.859 264.248H353.665C354.195 263.575 354.836 262.58 355.205 261.859L356.793 262.356C356.296 263.013 355.766 263.687 355.285 264.248Z" fill="white"/>
<path d="M338.061 263.815H334.308C334.757 264.713 335.366 265.515 336.152 266.205C336.922 265.515 337.58 264.729 338.061 263.815ZM339.087 262.468L340.066 262.901C339.472 264.633 338.526 265.996 337.339 267.087C338.35 267.713 339.536 268.194 340.868 268.482C340.563 268.787 340.146 269.348 339.969 269.717C338.542 269.332 337.275 268.755 336.184 267.985C335.062 268.755 333.795 269.348 332.431 269.782C332.255 269.397 331.886 268.835 331.597 268.531C332.816 268.194 334.003 267.696 335.029 267.039C334.163 266.205 333.458 265.227 332.928 264.104L333.811 263.815H332.014V262.532H338.799L339.087 262.468ZM326.657 270.92L327.924 271.145C327.716 272.652 327.347 274.208 326.85 275.235C326.609 275.058 326.016 274.786 325.711 274.673C326.192 273.711 326.497 272.3 326.657 270.92ZM330.763 269.83L329.721 269.894V276.486H328.389V269.974C327.507 270.022 326.689 270.07 325.968 270.118L325.839 268.803L326.962 268.771C327.251 268.386 327.571 267.953 327.876 267.504C327.379 266.782 326.593 265.916 325.887 265.259L326.609 264.28C326.753 264.393 326.898 264.521 327.042 264.649C327.539 263.767 328.069 262.612 328.357 261.746L329.673 262.259C329.111 263.334 328.438 264.569 327.86 265.451C328.149 265.756 328.421 266.061 328.63 266.333C329.207 265.387 329.753 264.409 330.154 263.591L331.389 264.152C330.491 265.611 329.336 267.36 328.293 268.707C328.935 268.691 329.608 268.659 330.298 268.611C330.09 268.162 329.865 267.713 329.64 267.312L330.651 266.895C331.292 267.937 331.918 269.316 332.11 270.215L331.02 270.696C330.972 270.439 330.875 270.15 330.763 269.83ZM330.025 271.145L331.1 270.792C331.501 271.706 331.934 272.909 332.11 273.695L330.972 274.08C330.811 273.294 330.426 272.075 330.025 271.145ZM336.97 272.38V274.689H340.675V276.005H331.613V274.689H335.495V272.38H332.608V271.065H335.495V268.948H336.97V271.065H339.969V272.38H336.97Z" fill="white"/>
<path d="M383.305 437.081V441.299C384.171 441.171 385.053 441.011 385.936 440.866L386 442.214C383.658 442.631 381.14 443.048 379.328 443.368L378.991 441.973C379.809 441.861 380.803 441.716 381.91 441.54V437.081H379.247V435.766H381.91V434.323H380.162V433.681C379.969 433.873 379.761 434.066 379.536 434.242C379.344 433.938 378.879 433.44 378.59 433.232C380.146 431.997 381.252 430.345 381.846 429.014H383.209C384.3 429.912 385.679 431.195 386.353 432.109L385.326 433.28C384.781 432.478 383.722 431.259 382.728 430.409C382.247 431.227 381.605 432.157 380.771 433.055H385.118V434.323H383.305V435.766H385.904V437.081H383.305ZM379.536 438.076L380.611 437.819C380.932 438.717 381.188 439.888 381.284 440.658L380.178 440.979C380.114 440.193 379.825 439.006 379.536 438.076ZM384.797 440.706L383.738 440.417C384.011 439.679 384.348 438.477 384.492 437.659L385.743 437.979C385.422 438.926 385.07 440.016 384.797 440.706ZM393.634 434.194V435.67H390.523V443.705H388.983V435.67H385.823V434.194H388.983V429.142H390.523V434.194H393.634Z" fill="white"/>
<path d="M366.707 435.799L366.9 437.178L364.895 437.755V442.07C364.895 442.84 364.735 443.241 364.269 443.465C363.788 443.69 363.099 443.738 362.024 443.722C361.976 443.353 361.767 442.743 361.591 442.359C362.265 442.391 362.922 442.391 363.115 442.375C363.339 442.375 363.419 442.31 363.419 442.07V438.188C362.73 438.397 362.072 438.573 361.479 438.734L361.094 437.29C361.735 437.13 362.537 436.953 363.419 436.713V433.521H361.318V432.142H363.419V429.03H364.895V432.142H366.643V433.521H364.895V436.296C365.488 436.135 366.098 435.975 366.707 435.799ZM373.7 437.884H368.985V439.231H373.7V437.884ZM368.985 441.797H373.7V440.402H368.985V441.797ZM367.573 443.722V436.649H375.176V443.642H373.7V443H368.985V443.722H367.573ZM370.236 434.147H373.476C374.31 434.147 374.438 433.858 374.55 432.222C374.887 432.463 375.513 432.671 375.898 432.767C375.705 434.933 375.256 435.494 373.572 435.494H370.124C368.119 435.494 367.589 435.061 367.589 433.489V429.062H369.065V431.324C370.829 430.939 372.69 430.394 373.829 429.864L374.935 430.955C373.331 431.613 371.07 432.158 369.065 432.527V433.489C369.065 434.05 369.258 434.147 370.236 434.147Z" fill="white"/>
<path d="M348.309 440.418V441.509C349.304 441.412 350.33 441.316 351.341 441.204C352.656 439.391 353.057 436.97 353.185 434.05H351.485V432.848H348.309V433.682H351.292V438.509H348.309V439.327H351.324V440.418H348.309ZM345.294 437.531H346.946V436.553H345.294V437.531ZM350.025 436.553H348.309V437.531H350.025V436.553ZM348.309 435.638H350.025V434.66H348.309V435.638ZM345.294 434.66V435.638H346.946V434.66H345.294ZM354.645 432.671H357.965C357.965 432.671 357.948 433.184 357.948 433.361C357.772 439.985 357.628 442.262 357.114 442.952C356.81 443.433 356.473 443.561 355.976 443.642C355.495 443.706 354.757 443.706 354.003 443.658C353.971 443.257 353.81 442.647 353.586 442.246C354.324 442.31 354.981 442.31 355.27 442.31C355.543 442.31 355.687 442.262 355.847 442.054C356.2 441.605 356.361 439.568 356.489 434.05H354.596C354.388 438.317 353.666 441.717 350.907 443.834C350.683 443.497 350.186 442.968 349.833 442.727C349.929 442.663 350.025 442.583 350.122 442.503C347.812 442.776 345.502 443.016 343.786 443.177L343.594 441.909C344.524 441.845 345.679 441.749 346.946 441.637V440.418H344.027V439.327H346.946V438.509H344.075V433.682H346.946V432.848H343.642V431.741H346.946V430.843C345.967 430.923 344.989 430.971 344.091 431.003C344.043 430.698 343.882 430.217 343.738 429.928C346.112 429.8 348.951 429.511 350.619 429.143L351.324 430.265C350.474 430.442 349.416 430.602 348.309 430.714V431.741H351.549V432.671H353.233C353.249 431.58 353.249 430.442 353.249 429.239H354.677C354.677 430.426 354.661 431.58 354.645 432.671Z" fill="white"/>
<path d="M340.114 429.944V431.372H332.335V429.944H340.114ZM329.513 428.998L330.94 429.591C329.849 431.019 328.181 432.607 326.706 433.649C326.529 433.312 326.128 432.735 325.856 432.446C327.187 431.58 328.727 430.153 329.513 428.998ZM330.138 432.43L331.549 432.96C331.052 433.778 330.459 434.612 329.801 435.414V443.77H328.31V437.066C327.78 437.595 327.235 438.092 326.722 438.509C326.529 438.188 326 437.531 325.695 437.242C327.331 436.071 329.063 434.243 330.138 432.43ZM340.563 434.323V435.75H338.254V441.925C338.254 442.775 338.061 443.208 337.452 443.449C336.858 443.674 335.912 443.69 334.42 443.69C334.356 443.257 334.148 442.631 333.939 442.198C334.966 442.23 336.04 442.23 336.329 442.214C336.634 442.214 336.73 442.134 336.73 441.909V435.75H331.662V434.323H340.563Z" fill="white"/>
<path d="M396.865 178.755C396.865 177.374 396.515 176.528 395.648 175.518L395.772 175.332C396.246 175.353 396.865 175.476 397.278 175.662C398.309 176.136 399.237 177.209 399.237 177.91C399.237 178.466 399.051 178.858 398.865 179.333C398.639 179.992 398.494 180.611 398.453 181.024C398.432 181.415 398.577 181.436 398.762 181.085C399.835 179.168 401.113 178.054 402.515 178.054C404.866 178.054 406.433 180.219 406.433 184.674C406.433 189.355 404 192.984 397.731 194.036L397.566 193.664C402.99 191.499 403.876 187.725 403.876 184.302C403.876 180.673 403.113 179.126 401.897 179.126C401.113 179.126 400.103 179.869 399.402 181.292C398.762 182.55 398.453 183.787 398.453 185.086C398.453 186.055 398.597 186.756 398.597 187.684C398.597 188.303 398.164 188.695 397.566 188.695C396.968 188.695 396.576 188.406 396.308 187.808C396.061 187.21 395.958 186.364 395.958 185.56C395.958 183.56 396.865 180.116 396.865 178.755Z" fill="white"/>
<path d="M380.886 177.291C380.886 176.838 380.432 176.302 379.834 175.765L380.041 175.456C380.68 175.518 381.257 175.6 381.773 175.848C382.948 176.446 383.917 177.642 383.917 178.364C383.917 179.024 383.278 179.189 382.391 179.787C380.886 180.838 378.432 182.797 377.566 183.663C377.03 184.2 376.824 184.468 376.824 184.736C376.824 185.024 377.133 185.313 377.566 185.602C379.546 187.004 381.855 188.344 383.257 190.118C383.979 191.025 384.227 191.706 384.227 192.407C384.227 193.067 383.876 193.83 382.804 193.83C382.247 193.83 381.835 193.479 381.587 193.087C381.34 192.634 381.113 192.159 380.556 191.273C379.752 189.973 378.143 188.386 375.731 186.324C375.215 185.911 374.988 185.396 374.988 185.004C374.988 184.571 375.153 184.2 375.586 183.684C376.679 182.344 379.649 179.25 380.453 178.199C380.762 177.807 380.886 177.58 380.886 177.291Z" fill="white"/>
<path d="M367.049 180.178C366.678 180.178 366.389 179.91 366.038 179.477C365.585 178.858 365.048 178.116 363.955 177.353L364.12 177.064C365.172 177.27 366.306 177.683 366.946 178.178C367.461 178.549 367.688 178.94 367.709 179.353C367.729 179.786 367.482 180.178 367.049 180.178ZM368.802 178.466C368.41 178.487 368.162 178.198 367.75 177.724C367.337 177.25 366.698 176.528 365.626 175.847L365.75 175.559C366.925 175.724 367.997 176.033 368.678 176.466C369.173 176.796 369.461 177.167 369.482 177.683C369.503 178.116 369.214 178.466 368.802 178.466ZM350.304 182.446L350.593 182.302C350.882 182.652 351.418 183.085 351.974 183.085C352.243 183.085 352.573 183.024 353.232 182.694C355.686 181.642 358.8 179.642 362.182 179.642C365.976 179.642 368.327 182.199 368.327 184.941C368.327 187.705 366.677 189.375 364.574 190.488C362.347 191.684 358.697 191.932 355.666 191.705L355.604 191.231C358.47 190.901 360.697 190.447 362.821 189.169C364.615 188.158 365.791 186.674 365.791 184.611C365.791 182.59 364.471 180.776 362.12 180.776C359.398 180.776 356.387 183.436 355.212 184.364C354.098 185.251 353.645 185.828 352.882 185.828C352.036 185.828 350.799 184.879 350.469 183.993C350.263 183.498 350.304 182.9 350.304 182.446Z" fill="white"/>
<path d="M336.22 177.745L338.117 179.786C337.932 179.972 337.684 180.013 337.189 180.075C336.653 181.168 335.89 182.281 334.983 183.312C339.437 184.385 337.973 187.664 336.179 186.468C335.952 185.643 335.395 184.715 334.797 183.972V193.438C334.797 193.582 334.014 194.159 332.859 194.159H332.405V185.705C331.416 186.468 330.343 187.127 329.209 187.643L329.023 187.457C331.622 185.333 333.808 182.261 334.736 179.559H329.725L329.539 179.003H332.426V174.981L335.457 175.229C335.416 175.518 335.251 175.724 334.694 175.806V179.003H334.901L336.22 177.745ZM345.252 192.716L346.552 190.922C346.552 190.922 348.036 192.159 348.902 192.984C348.841 193.211 348.614 193.314 348.325 193.314H336.014L335.849 192.716H341.066V182.838H337.478L337.313 182.261H341.066V175.002L344.324 175.332C344.283 175.641 344.118 175.848 343.582 175.909V182.261H344.922L346.18 180.508C346.18 180.508 347.603 181.704 348.449 182.508C348.408 182.735 348.181 182.838 347.871 182.838H343.582V192.716H345.252Z" fill="white"/>
<path d="M323.395 185.787L324.797 184.055C324.797 184.055 326.385 185.23 327.354 186.055C327.292 186.282 327.086 186.385 326.777 186.385H318.26C317.25 187.973 315.93 189.767 314.734 191.128C317.002 191.045 319.745 190.901 322.673 190.736C321.993 189.643 321.168 188.592 320.364 187.767L320.549 187.643C328.695 189.911 326.777 195.727 324.034 193.767C323.828 192.963 323.457 192.118 322.982 191.293C320.508 191.953 317.126 192.695 312.218 193.685C312.094 193.932 311.847 194.097 311.62 194.139L310.177 191.272C311.022 191.272 312.218 191.231 313.662 191.169C314.218 189.726 314.796 187.849 315.167 186.385H309.909L309.744 185.787H323.395ZM319.848 182.178L321.127 180.549C321.127 180.549 322.611 181.663 323.519 182.446C323.457 182.673 323.251 182.776 322.962 182.776H313.476L313.311 182.178H319.848ZM316.775 174.631L320.59 175.579C320.508 175.868 320.219 175.992 319.559 176.054C321.415 178.446 325.21 180.116 328.303 180.817L328.282 181.147C327.169 181.477 326.488 182.611 326.302 183.56C323.147 182.116 320.467 179.477 319.229 176.301C317.353 179.353 312.981 182.446 308.754 183.931L308.609 183.704C312.218 181.601 315.93 177.497 316.775 174.631Z" fill="white"/>
<path d="M431.324 162.479C431.674 162.479 431.984 162.458 432.293 162.437C432.045 161.056 431.221 160.169 430.086 160.169C429.303 160.169 428.787 160.561 428.787 161.2C428.787 161.984 429.736 162.479 431.324 162.479ZM426.684 147.776L426.973 147.755C427.323 148.415 427.839 149.013 428.375 149.013C429.117 149.013 431.282 148.497 432.396 148.147C433.2 147.879 433.2 147.569 433.633 147.569C434.603 147.569 436.232 148.868 436.232 149.755C436.232 150.333 435.51 150.498 434.829 150.972C433.468 151.859 430.932 154.044 430.148 154.869C429.921 155.096 430.045 155.24 430.251 155.179C430.932 154.952 432.107 154.477 433.695 154.477C436.479 154.477 438.809 156.21 438.789 159.303C438.768 162.066 436.314 164.293 432.066 164.293C429.653 164.293 427.859 163.242 427.859 161.448C427.859 160.086 429.097 159.2 430.623 159.2C432.025 159.2 433.716 159.983 434.211 162.004C435.922 161.303 436.623 159.983 436.644 158.561C436.665 156.746 435.448 155.344 433.077 155.344C430.251 155.344 428.272 157.406 426.519 159.674C426.024 160.313 425.818 160.499 425.302 160.478C424.849 160.458 424.395 159.922 424.436 159.138C424.477 158.581 424.807 158.127 425.488 157.468C427.509 155.488 431.839 151.405 432.912 149.941C433.262 149.487 433.056 149.343 432.726 149.405C431.963 149.528 430.684 150.229 429.901 150.683C429.509 150.931 429.158 151.24 428.725 151.24C427.509 151.24 426.581 149.838 426.519 149.116C426.498 148.642 426.56 148.291 426.684 147.776Z" fill="white"/>
<path d="M406.497 157.282L404.868 159.778C405.301 160.19 405.776 160.644 405.982 160.85C406.271 161.097 406.436 161.036 406.456 160.644C406.477 159.922 406.456 158.643 406.497 157.282ZM421.159 159.283L421.386 159.51C420.644 161.056 419.118 162.83 416.849 162.83C415.179 162.83 414.189 161.902 414.189 159.716C414.189 157.241 414.973 155.035 414.973 152.766C414.973 151.508 414.684 150.828 413.674 150.828C411.921 150.828 409.735 152.56 408.044 154.746C408.023 154.993 408.003 155.22 407.982 155.427C407.858 157.097 408.023 159.18 408.168 160.458C408.25 161.283 408.395 161.84 408.395 162.417C408.395 163.634 407.776 164.603 406.992 164.603C406.271 164.603 406.003 164.211 405.92 163.634C405.817 163.077 405.693 162.541 405.466 161.943C405.281 161.469 404.951 160.829 404.559 160.252L403.92 161.242C403.549 161.819 403.239 162.314 402.724 162.314C402.27 162.335 401.816 161.902 401.816 161.18C401.816 160.582 402.002 160.128 402.414 159.695C403.363 158.726 405.24 156.458 406.683 154.334C406.704 153.942 406.745 153.55 406.786 153.158C406.25 153.467 405.714 153.777 405.425 153.962C405.013 154.272 404.806 154.87 404.373 154.87C403.445 154.87 402.332 153.797 402.064 152.931C401.961 152.601 402.023 152.106 402.043 151.756L402.332 151.673C402.683 152.168 403.012 152.56 403.487 152.56C404.126 152.56 405.899 151.715 406.992 151.158C407.116 150.024 407.219 149.075 407.219 148.621C407.219 148.168 407.157 148.044 406.786 147.838C406.477 147.673 406.064 147.487 405.508 147.343V146.992C406.044 146.745 406.559 146.601 407.157 146.601C408.292 146.601 409.694 147.817 409.694 148.58C409.694 149.055 409.426 149.364 409.158 150.024C409.054 150.271 408.951 150.601 408.828 150.993C409.199 151.302 409.57 151.715 409.57 151.9C409.57 151.983 409.549 152.065 409.529 152.127C410.972 150.931 412.787 149.818 414.395 149.818C416.416 149.818 417.2 150.993 417.2 153.055C417.2 154.973 416.416 157.076 416.416 159.221C416.416 160.293 416.788 160.706 417.695 160.706C418.932 160.706 419.963 160.231 421.159 159.283Z" fill="white"/>
<path d="M386.866 148.292L386.784 147.982C387.423 147.529 388.227 147.116 389.052 147.116C390.227 147.116 391.135 147.487 391.259 147.982C391.547 149.075 391.795 149.797 392.125 150.498C394.125 149.632 394.764 148.766 395.218 148.663C395.733 148.601 396.393 148.663 396.744 149.034C397.053 149.385 397.012 149.962 396.62 150.333C396.022 150.911 394.579 151.674 393.053 152.272C394.104 153.942 395.527 155.262 396.599 156.293C397.094 156.767 397.259 157.076 397.28 157.551C397.28 158.272 396.909 159.427 396.146 159.427C395.527 159.427 395.115 159.035 394.434 158.582C393.383 157.901 391.815 157.035 389.526 157.035C387.382 157.035 385.938 158.19 385.938 159.736C385.938 161.036 387.34 162.005 390.227 162.005C391.671 162.005 392.537 161.778 393.341 161.778C394.249 161.778 395.073 162.108 395.073 162.974C395.073 163.799 394.001 164.356 390.949 164.356C387.052 164.356 384.247 162.892 384.247 160.252C384.247 157.922 386.701 156.107 390.042 156.107C391.836 156.107 393.3 156.416 394.104 156.602C394.352 156.643 394.393 156.602 394.207 156.396C393.444 155.55 392.351 154.169 391.444 152.849C390.145 153.241 388.516 153.591 387.217 153.612C384.577 153.653 383.897 152.746 382.969 150.622L383.257 150.395C384.598 151.509 385.423 151.777 386.846 151.756C387.774 151.756 389.155 151.488 390.392 151.117C389.959 150.374 389.526 149.591 389.196 149.075C388.846 148.539 388.042 148.374 386.866 148.292Z" fill="white"/>
<path d="M366.369 150.972H369.854C369.586 150.931 369.318 150.828 369.05 150.581C369.07 149.756 368.72 148.807 368.348 148.188C367.173 148.23 365.977 148.25 364.802 148.25C367.874 148.869 367.462 150.684 366.369 150.972ZM370.143 150.972H372.493C373.009 150.065 373.504 148.848 373.813 147.9C372.349 148.023 370.761 148.106 369.091 148.168C371.895 148.993 371.277 150.828 370.143 150.972ZM376.391 151.55H363.709C363.709 152.828 363.152 153.694 362.451 154.066C361.811 154.416 360.904 154.251 360.677 153.529C360.471 152.849 360.904 152.333 361.523 152.045C362.265 151.715 363.069 150.787 363.049 149.756H363.358C363.523 150.189 363.606 150.601 363.667 150.972H365.791C365.585 150.931 365.379 150.807 365.173 150.642C365.173 149.838 364.76 148.89 364.327 148.333L364.43 148.25C363.647 148.25 362.843 148.25 362.08 148.23L362.038 147.858C366.658 147.508 372.535 146.559 375.669 145.714L377.628 147.776C377.381 147.941 376.948 147.941 376.35 147.673C375.607 147.755 374.803 147.838 373.937 147.9L376.7 148.951C376.597 149.178 376.35 149.323 375.896 149.261C375.257 149.797 374.308 150.436 373.339 150.972H376.35L377.546 149.797L379.608 151.756C379.443 151.921 379.237 151.962 378.803 151.983C378.144 152.457 377.071 153.014 376.164 153.385C378.68 154.808 377.319 157.303 375.607 156.19C375.298 154.952 374.246 153.571 373.298 152.725L373.463 152.581C374.391 152.705 375.133 152.911 375.731 153.158C375.958 152.684 376.205 152.065 376.391 151.55ZM368.452 152.045L368.596 151.88C373.421 151.612 372.163 155.282 370.204 154.251C369.957 153.447 369.132 152.519 368.452 152.045ZM365.008 152.54L365.317 152.56C365.977 154.664 365.152 156.045 364.162 156.499C363.482 156.808 362.595 156.602 362.41 155.901C362.245 155.241 362.657 154.746 363.255 154.478C364.039 154.23 364.946 153.467 365.008 152.54ZM372.514 158.912H368.122C367.957 159.056 367.771 159.221 367.585 159.365C368.287 160.108 369.194 160.706 370.246 161.18C371.153 160.499 371.916 159.757 372.514 158.912ZM374.04 157.117L376.081 159.077C375.937 159.283 375.71 159.345 375.174 159.365C374.391 160.334 373.442 161.18 372.349 161.902C374.514 162.458 377.051 162.685 379.608 162.706V162.974C378.659 163.283 378.102 164.067 377.896 165.222C374.968 164.83 372.473 164.17 370.493 162.953C367.792 164.232 364.451 164.954 360.677 165.201L360.574 164.892C363.832 164.294 366.802 163.325 369.111 161.922C368.39 161.283 367.771 160.52 367.256 159.613C365.503 160.932 363.234 162.087 360.987 162.706L360.822 162.438C363.317 161.097 365.812 158.726 367.111 156.664C366.554 156.437 366.431 156.004 366.431 155.2V152.333L368.988 152.56C368.967 152.808 368.761 152.993 368.39 153.055V154.829C368.39 155.035 368.431 155.097 369.008 155.097H370.617H372.019C372.225 155.076 372.37 155.055 372.473 154.932C372.638 154.725 372.865 154.21 373.133 153.529H373.359L373.421 154.932C373.978 155.138 374.122 155.365 374.122 155.695C374.122 156.519 373.339 156.829 370.411 156.829H368.802L370.081 157.447C369.998 157.633 369.771 157.715 369.38 157.654C369.194 157.88 368.988 158.107 368.761 158.334H372.617L374.04 157.117Z" fill="white"/>
<path d="M345.724 155.55L346.178 155.756C345.766 156.87 345.044 158.664 344.858 159.427C344.693 160.252 344.59 160.685 344.59 161.015C344.59 161.757 345.044 162.458 345.044 163.077C345.044 163.819 344.673 164.252 343.992 164.252C343.497 164.252 343.002 163.881 342.59 163.324C341.827 162.293 341.332 160.685 341.332 158.375C341.332 156.478 341.909 154.313 342.239 153.076C342.487 152.086 342.693 151.24 342.714 150.333C342.714 149.384 342.178 148.498 341.641 147.9L341.848 147.673C342.528 147.838 342.982 148.023 343.477 148.353C344.116 148.766 345.229 149.9 345.229 151.034C345.229 151.612 344.941 152.024 344.446 152.973C343.662 154.334 342.879 156.231 342.879 157.984C342.879 158.623 342.982 159.035 343.105 159.283C343.229 159.592 343.415 159.613 343.621 159.303C344.137 158.561 345.188 156.581 345.724 155.55ZM347.745 157.365L348.096 157.324C348.22 157.819 348.385 158.437 348.632 158.87C349.436 160.293 350.405 160.829 352.983 160.829C355.066 160.829 355.911 160.437 356.344 160.437C357.231 160.437 358.159 160.829 358.159 161.613C358.159 162.891 356.076 163.159 353.581 163.159C349.684 163.159 348.075 161.489 347.766 159.097C347.683 158.478 347.704 157.86 347.745 157.365ZM348.405 151.838L348.261 151.488C349.828 150.065 352.035 149.549 353.581 149.549C354.963 149.549 355.808 149.714 356.509 150.086C357.149 150.436 357.314 150.849 357.314 151.22C357.314 151.735 357.046 151.983 356.53 152.086C355.911 152.189 355.169 152.21 354.323 152.457C353.396 152.766 352.035 153.406 350.921 154.086L350.653 153.777C351.56 153.014 352.591 152.148 352.942 151.756C353.148 151.508 353.251 151.302 351.746 151.302C351.127 151.302 350.137 151.364 348.405 151.838Z" fill="white"/>
<path d="M323.887 147.343V147.054C324.279 146.848 325 146.642 325.557 146.642C326.361 146.642 327.062 146.868 327.496 147.178C327.908 147.508 327.702 148.147 327.104 149.92C328.609 149.425 329.083 149.034 329.351 149.034C329.826 149.034 330.424 149.364 330.424 150.024C330.424 150.477 330.135 150.745 329.785 150.972C329.063 151.426 327.784 151.838 326.382 152.127C325.701 154.23 324.464 157.736 322.918 160.21C322.402 161.015 321.99 161.551 321.412 161.551C320.711 161.551 320.319 160.87 320.319 160.169C320.319 159.674 320.443 159.282 320.814 158.829C322.175 157.179 323.577 155.096 324.485 152.436C323.969 152.498 323.495 152.519 323.041 152.519C321.33 152.519 320.546 152.003 319.969 149.714L320.278 149.549C321.144 150.209 321.804 150.704 323.124 150.704C323.722 150.704 324.444 150.601 325.062 150.477C325.207 149.838 325.289 149.261 325.31 148.766C325.31 148.333 325.145 148.085 324.794 147.817C324.464 147.57 324.093 147.425 323.887 147.343ZM330.609 160.829C330.609 160.643 330.609 160.458 330.609 160.272C330.032 160.128 329.393 160.066 328.712 160.066C327.042 160.066 326.258 160.829 326.258 161.489C326.258 162.169 326.815 162.664 328.259 162.664C329.785 162.664 330.609 162.005 330.609 160.829ZM331.537 151.013L331.517 150.642C332.692 150.271 333.888 150.312 334.734 150.56C336.136 150.993 337.002 151.921 337.002 153.075C337.002 153.735 336.775 154.21 336.115 154.21C335.311 154.21 334.754 153.591 333.62 153.612C333.022 153.632 332.383 153.859 332.073 154.292C331.764 154.746 331.805 155.447 331.929 156.251C332.012 156.849 332.218 157.86 332.403 158.973C333.476 159.241 334.321 159.633 335.002 160.025C336.301 160.705 337.208 161.571 337.208 162.479C337.208 163.283 336.734 163.634 336.26 163.634C335.641 163.634 335.352 163.056 334.548 162.355C334.033 161.881 333.414 161.406 332.651 161.015C332.671 161.262 332.672 161.51 332.672 161.757C332.672 163.592 331.269 164.562 328.898 164.562C326.629 164.562 325.268 163.407 325.268 161.881C325.268 160.21 326.918 158.684 329.929 158.684C330.135 158.684 330.341 158.684 330.548 158.705C330.506 158.045 330.486 157.406 330.486 156.849C330.486 155.55 330.712 154.643 331.331 153.921C332.115 152.972 333.166 152.581 333.806 152.251C333.909 152.065 333.826 151.879 333.62 151.714C333.166 151.323 332.424 151.096 331.537 151.013Z" fill="white"/>
<path d="M306.812 148.332C306.503 148.064 305.946 147.796 305.575 147.652L305.616 147.343C306.111 147.157 306.874 147.074 307.328 147.157C308.957 147.384 310.05 148.683 310.05 149.508C310.05 149.982 309.39 150.209 308.813 150.807C307.761 151.879 305.967 154.209 305.121 155.612C305.059 155.735 305.101 155.797 305.245 155.715C306.235 155.22 307.163 154.993 307.823 154.993C309.576 154.993 310.545 155.88 310.669 157.468C310.73 158.437 310.689 159.365 310.689 160.499C310.689 161.53 311.246 161.881 312.091 161.881C314.277 161.881 316.113 159.447 316.958 157.22L317.288 157.303C316.834 162.149 314.36 164.149 311.493 164.149C309.514 164.149 308.441 163.056 308.421 161.365C308.4 159.942 308.648 158.808 308.648 157.488C308.648 156.622 308.338 155.921 307.225 155.921C305.554 155.921 304.111 157.756 303.369 159.447C302.853 160.643 302.502 161.901 302.152 162.87C301.925 163.489 301.554 164.046 300.791 164.046C300.007 164.046 299.574 163.262 299.574 162.52C299.574 161.448 300.688 159.942 301.822 157.983C303.183 155.632 306.297 150.436 306.915 149.24C307.101 148.827 307.039 148.539 306.812 148.332Z" fill="white"/>
<path d="M281.531 159.613C282.026 158.891 282.933 157.365 283.531 156.313C281.49 156.643 279.758 157.757 279.531 158.911C279.387 159.633 279.861 160.499 280.335 160.499C280.789 160.499 281.077 160.272 281.531 159.613ZM291.223 153.632V153.344C291.615 153.096 292.131 152.869 292.625 152.89C293.595 152.931 294.729 153.818 294.729 154.416C294.729 154.787 294.626 155.261 294.564 155.674C294.481 156.066 294.378 156.684 294.213 157.365C294.914 157.798 295.574 158.272 295.987 158.643C296.482 159.118 296.832 159.592 296.812 160.437C296.791 160.953 296.502 161.51 295.739 161.51C295.018 161.51 294.44 160.767 293.388 159.798C291.986 162.561 289.099 164.17 285.119 164.789L284.934 164.417C288.46 163.159 290.584 161.077 291.656 158.396C290.357 157.427 288.542 156.396 285.429 156.251C284.583 157.942 283.552 160.376 283.078 161.077C282.253 162.355 281.552 162.891 280.418 162.891C279.222 162.891 278.355 160.953 278.562 159.241C278.809 157.055 281.634 155.633 284.15 155.22C285.202 153.385 286.934 150.58 287.243 149.921C287.449 149.508 287.285 149.343 286.934 149.467C286.315 149.694 285.408 150.209 284.831 150.58C284.521 150.807 284.15 151.178 283.676 151.178C282.768 151.178 281.655 149.941 281.593 149.199C281.552 148.807 281.634 148.353 281.696 147.982L281.985 147.92C282.377 148.518 282.645 148.972 283.263 148.972C284.068 148.972 285.676 148.498 286.583 148.188C287.388 147.9 287.676 147.508 288.068 147.508C288.831 147.508 290.584 148.745 290.584 149.549C290.584 150.106 289.718 150.395 289.079 151.034C288.316 151.797 286.934 153.632 286.068 155.076C288.646 155.138 290.666 155.674 292.254 156.334C292.357 155.715 292.399 155.138 292.399 154.746C292.378 154.375 292.357 154.21 292.089 154.004C291.883 153.839 291.615 153.735 291.223 153.632Z" fill="white"/>
<path d="M410.89 315.21L411.147 315.124C414.155 314.122 414.871 313.435 415.157 313.406C416.245 313.263 417.592 313.52 417.592 314.637C417.592 315.038 417.391 315.497 416.732 315.926C415.701 316.556 414.183 317.215 412.35 317.759C414.527 321.082 416.245 321.769 416.245 322.915C416.245 324.318 415.443 325.607 414.498 325.607C413.582 325.607 413.124 324.948 411.462 324.003C410.46 323.402 408.369 322.657 406.107 322.657C403.214 322.657 401.467 323.888 401.467 325.55C401.467 327.612 404.274 328.127 406.622 328.127C409.2 328.127 409.458 327.755 411.09 327.755C412.322 327.755 413.381 328.185 413.381 329.244C413.381 330.705 410.46 331.135 407.338 331.135C402.842 331.135 399.261 329.445 399.261 326.266C399.261 323.717 401.868 321.425 407.023 321.425C409.057 321.425 411.119 321.769 412.207 321.998C412.551 322.113 412.579 321.998 412.436 321.74C412.007 321.024 411.147 319.907 410.202 318.332C407.94 318.848 405.419 319.191 402.956 319.191C399.004 319.191 397.314 316.27 400.894 313.893L401.266 314.179C400.035 315.754 400.464 316.7 402.985 316.7C404.818 316.7 406.794 316.385 408.856 315.84C408.427 314.953 407.968 313.979 407.539 312.976C406.049 313.263 404.503 313.463 403.071 313.463C400.321 313.463 399.004 312.747 397.801 310.026L398.116 309.797C399.691 310.828 400.55 311.172 402.498 311.172C403.558 311.172 405.133 310.914 406.536 310.599C406.336 310.112 406.164 309.625 405.992 309.196C405.677 308.422 405.448 308.136 404.589 307.936C404.102 307.85 403.357 307.735 402.698 307.678L402.612 307.305C403.472 306.532 404.417 306.017 405.591 306.017C407.195 306.017 408.341 306.332 408.484 307.42C408.57 308.021 408.684 309.024 408.885 309.969C411.291 309.196 412.178 308.279 412.493 308.279C413.639 308.279 414.899 308.422 414.899 309.453C414.899 309.854 414.67 310.284 414.069 310.685C413.238 311.229 411.606 311.917 409.687 312.461C410.03 313.435 410.403 314.265 410.89 315.21Z" fill="white"/>
<path d="M370.506 310.427C370.506 308.508 370.019 307.334 368.816 305.931L368.988 305.673C369.647 305.701 370.506 305.873 371.079 306.131C372.511 306.79 373.8 308.279 373.8 309.253C373.8 310.026 373.542 310.57 373.284 311.229C372.969 312.146 372.769 313.005 372.712 313.578C372.683 314.122 372.883 314.151 373.141 313.664C374.63 311 376.406 309.453 378.354 309.453C381.619 309.453 383.796 312.461 383.796 318.647C383.796 325.149 380.416 330.189 371.709 331.65L371.48 331.134C379.013 328.127 380.244 322.886 380.244 318.132C380.244 313.091 379.184 310.943 377.495 310.943C376.406 310.943 375.003 311.974 374.029 313.95C373.141 315.697 372.712 317.416 372.712 319.22C372.712 320.566 372.912 321.54 372.912 322.829C372.912 323.688 372.311 324.232 371.48 324.232C370.649 324.232 370.105 323.831 369.733 323.001C369.389 322.17 369.246 320.996 369.246 319.879C369.246 317.101 370.506 312.318 370.506 310.427Z" fill="white"/>
<path d="M342.64 318.876C342.64 320.165 342.841 321.167 343.127 321.998C344.731 320.279 346.364 317.959 346.994 316.298C345.619 316.356 344.244 316.699 342.726 317.387C342.669 317.902 342.64 318.418 342.64 318.876ZM336.482 325.979C337.685 325.979 339.347 325.148 340.807 324.06C340.492 322.742 340.349 321.225 340.349 319.764C340.349 319.42 340.349 319.048 340.378 318.676C337.542 320.594 335.795 323.373 335.795 325.177C335.795 325.721 335.996 325.979 336.482 325.979ZM346.106 313.635L346.335 313.291C347.452 313.463 348.311 313.778 348.884 314.379C349.142 314.666 349.256 314.981 349.228 315.325C353.667 315.897 356.359 319.019 356.359 322.485C356.359 328.413 350.66 330.848 342.554 330.876L342.44 330.332C349.944 328.929 353.18 325.549 353.18 321.683C353.18 319.048 351.605 317.014 348.941 316.442C348.053 318.819 346.106 321.683 343.986 324.003C344.301 324.719 344.588 325.349 344.588 326.065C344.588 326.953 344.015 327.325 343.213 327.325C342.583 327.325 342.067 326.924 341.666 326.237C339.604 327.926 337.428 328.843 335.623 328.843C334.191 328.843 333.246 327.955 333.246 326.237C333.246 322.513 336.626 318.991 340.521 317.043C340.635 315.869 340.836 314.637 341.008 313.463C340.091 313.577 339.175 313.635 338.316 313.635C335.967 313.635 334.993 312.346 334.334 310.169L334.649 309.883C336.082 310.828 337.199 311.258 338.802 311.258C339.69 311.258 340.549 311.2 341.38 311.086C341.523 310.026 341.638 309.109 341.638 308.537C341.638 308.021 341.523 307.849 341.036 307.677C340.607 307.506 340.005 307.362 339.432 307.248L339.404 306.847C340.005 306.532 340.865 306.131 341.437 306.131C343.099 306.131 345.132 307.105 345.132 307.849C345.132 308.594 344.387 308.938 344.13 309.997L343.986 310.627C347.166 309.854 349.027 308.651 349.371 308.651C350.889 308.651 351.719 309.109 351.719 309.94C351.719 310.599 351.347 311 350.602 311.286C349.256 311.802 346.421 312.604 343.385 313.119C343.184 314.093 343.013 315.095 342.869 316.041C344.244 315.582 345.705 315.296 347.251 315.239C347.251 314.637 346.879 314.15 346.106 313.635Z" fill="white"/>
<path d="M309.932 305.415L314.658 305.873C314.6 306.303 314.342 306.589 313.598 306.675C314.199 317.702 316.891 324.375 326.687 327.984L326.629 328.328C324.911 328.643 323.823 329.817 323.45 331.679C316.233 327.841 314.085 321.11 313.369 311.974C312.853 319.334 310.791 326.666 300.022 331.822L299.707 331.421C310.19 323.774 309.903 314.523 309.932 305.415Z" fill="white"/>
<path d="M397.889 481.132L398.262 481.103C400.381 486.23 399.207 489.667 397.66 491.27C396.629 492.445 395.025 492.445 394.309 491.385C393.708 490.469 394.109 489.466 394.911 488.75C396.486 487.633 398.004 484.626 397.889 481.132ZM402.185 472.769C415.246 473.542 412.181 481.59 408.601 479.499C407.828 477.781 405.651 475.06 402.071 473.112L402.185 472.769ZM414.3 480.845C425.442 485.8 420.143 494.421 417.279 490.583C417.336 487.948 416.678 483.881 414.071 481.074L414.3 480.845ZM401.67 478.697L406.023 479.127C405.966 479.499 405.708 479.786 405.021 479.9V493.877C405.021 494.536 405.336 494.736 406.51 494.736H409.746C410.921 494.736 411.895 494.736 412.381 494.679C412.84 494.65 413.069 494.536 413.298 494.192C413.67 493.59 414.186 491.929 414.816 489.781H415.131L415.217 494.392C416.248 494.793 416.534 495.194 416.534 495.853C416.534 497.428 415.102 498.144 409.431 498.144H405.937C402.701 498.144 401.67 497.543 401.67 494.879V478.697Z" fill="white"/>
<path d="M375.032 480.043C375.032 479.098 374.631 478.239 374.144 477.58C372.282 478.096 370.478 479.155 369.103 480.616C367.442 482.449 366.526 484.397 366.526 486.745C366.526 489.008 367.499 491.127 368.702 491.127C370.306 491.127 372.827 487.175 373.743 485.199C374.488 483.537 375.032 481.561 375.032 480.043ZM374.745 497.084L374.631 496.54C381.877 494.822 384.598 490.841 384.598 485.886C384.598 480.616 381.218 477.236 376.578 477.236C376.206 477.236 375.805 477.265 375.433 477.322C376.292 478.21 377.323 479.614 377.323 480.96C377.323 482.42 377.037 484.311 376.378 486.058C375.089 489.695 371.881 494.908 368.387 494.908C366.096 494.908 363.977 491.385 363.977 487.662C363.977 484.998 365.294 481.59 368.187 479.155C370.507 477.151 373.399 476.091 376.894 476.091C383.481 476.091 388.149 480.673 388.149 486.631C388.149 492.044 384.369 496.684 374.745 497.084Z" fill="white"/>
<path d="M331.872 482.364L332.273 482.163C332.674 482.65 333.418 483.252 334.192 483.252C334.564 483.252 335.022 483.166 335.939 482.708C339.347 481.247 343.672 478.469 348.369 478.469C353.639 478.469 356.904 482.02 356.904 485.829C356.904 489.667 354.613 491.987 351.691 493.534C348.598 495.195 343.529 495.539 339.318 495.224L339.233 494.565C343.214 494.107 346.307 493.477 349.257 491.701C351.749 490.297 353.381 488.235 353.381 485.371C353.381 482.564 351.548 480.044 348.283 480.044C344.502 480.044 340.321 483.739 338.688 485.027C337.142 486.259 336.512 487.061 335.452 487.061C334.278 487.061 332.559 485.744 332.101 484.512C331.815 483.825 331.872 482.994 331.872 482.364Z" fill="white"/>
<path d="M309.301 478.383L308.872 484.454C310.247 483.824 311.822 483.481 313.512 483.481C318.925 483.481 321.101 486.345 321.101 490.011C321.101 494.049 318.094 497.085 312.309 497.085C308.471 497.085 305.865 495.367 305.578 492.273C305.865 491.443 306.581 491.07 307.268 491.07C308.356 491.07 308.986 491.672 309.158 493.133L309.588 495.624C310.247 495.882 310.905 495.997 312.022 495.997C314.743 495.997 316.719 493.906 316.719 490.211C316.719 486.975 315.001 485.113 312.022 485.113C310.562 485.113 309.416 485.371 308.099 486.03L307.411 485.629L308.099 475.089H320.328V478.383H309.301Z" fill="white"/>
</svg>
