<svg width="2396" height="971" viewBox="0 0 2396 971" fill="none" xmlns="http://www.w3.org/2000/svg">
<g filter="url(#filter0_d_205_2944)">
<path d="M518 59H2396V919H22L518 59Z" fill="white"/>
</g>
<path d="M783.315 377.82L568.465 5.67C564.105 -1.89 553.195 -1.89 548.825 5.67L333.965 377.82H783.325H783.315Z" fill="#C11313"/>
<path d="M958.532 681.3L791.502 391.99H325.772L158.742 681.3H958.532Z" fill="#DD5C5C"/>
<path d="M966.714 695.47H150.564L1.53437 953.6C-2.82563 961.16 2.62437 970.61 11.3544 970.61H1105.93C1114.66 970.61 1120.11 961.16 1115.75 953.6L966.724 695.47H966.714Z" fill="#EB8E8E"/>
<path d="M599.073 199.672H601.705V204.684C601.705 205.076 601.789 205.328 601.957 205.44C602.144 205.534 602.545 205.58 603.161 205.58C603.31 205.58 603.562 205.58 603.917 205.58C604.272 205.58 604.664 205.58 605.093 205.58C605.541 205.58 605.952 205.58 606.325 205.58C606.717 205.58 607.006 205.58 607.193 205.58C607.566 205.58 607.846 205.515 608.033 205.384C608.22 205.235 608.341 204.936 608.397 204.488C608.472 204.022 608.528 203.312 608.565 202.36C608.752 202.51 608.985 202.65 609.265 202.78C609.545 202.911 609.834 203.023 610.133 203.116C610.45 203.21 610.721 203.294 610.945 203.368C610.852 204.582 610.684 205.524 610.441 206.196C610.198 206.868 609.844 207.326 609.377 207.568C608.91 207.83 608.257 207.96 607.417 207.96C607.286 207.96 607.072 207.96 606.773 207.96C606.474 207.96 606.129 207.96 605.737 207.96C605.345 207.96 604.953 207.96 604.561 207.96C604.169 207.96 603.824 207.96 603.525 207.96C603.226 207.96 603.012 207.96 602.881 207.96C601.873 207.96 601.089 207.858 600.529 207.652C599.988 207.466 599.605 207.13 599.381 206.644C599.176 206.178 599.073 205.534 599.073 204.712V199.672ZM600.529 198.132L602.181 196.396C602.853 196.695 603.534 197.05 604.225 197.46C604.934 197.871 605.597 198.3 606.213 198.748C606.829 199.196 607.324 199.635 607.697 200.064L605.905 201.94C605.55 201.511 605.074 201.063 604.477 200.596C603.898 200.13 603.264 199.682 602.573 199.252C601.882 198.823 601.201 198.45 600.529 198.132ZM610.133 200.428L612.345 199.14C613.036 199.775 613.726 200.475 614.417 201.24C615.108 201.987 615.733 202.743 616.293 203.508C616.853 204.274 617.282 204.992 617.581 205.664L615.201 207.12C614.921 206.467 614.51 205.758 613.969 204.992C613.446 204.208 612.849 203.415 612.177 202.612C611.524 201.81 610.842 201.082 610.133 200.428ZM595.461 199.448L597.841 200.232C597.636 201.11 597.356 201.996 597.001 202.892C596.665 203.77 596.236 204.591 595.713 205.356C595.209 206.122 594.593 206.794 593.865 207.372L591.681 205.86C592.334 205.375 592.904 204.787 593.389 204.096C593.893 203.406 594.313 202.668 594.649 201.884C595.004 201.082 595.274 200.27 595.461 199.448ZM595.517 192.168H611.225V194.436H595.517V192.168ZM599.577 188.36H609.657V190.46H599.577V188.36ZM604.533 184.72C603.749 185.616 602.75 186.531 601.537 187.464C600.342 188.379 599.017 189.247 597.561 190.068C596.105 190.871 594.63 191.571 593.137 192.168C593.025 191.944 592.885 191.692 592.717 191.412C592.549 191.132 592.372 190.862 592.185 190.6C591.998 190.32 591.812 190.087 591.625 189.9C593.174 189.34 594.677 188.659 596.133 187.856C597.608 187.054 598.942 186.176 600.137 185.224C601.332 184.272 602.302 183.33 603.049 182.396H605.765C606.792 183.479 607.958 184.496 609.265 185.448C610.572 186.382 611.953 187.203 613.409 187.912C614.865 188.603 616.312 189.172 617.749 189.62C617.45 189.938 617.152 190.33 616.853 190.796C616.554 191.244 616.302 191.655 616.097 192.028C615.089 191.636 614.044 191.179 612.961 190.656C611.878 190.115 610.814 189.527 609.769 188.892C608.742 188.239 607.772 187.558 606.857 186.848C605.961 186.139 605.186 185.43 604.533 184.72ZM610.469 192.168H611.029L611.449 192.056L613.213 193.12C612.877 193.848 612.457 194.614 611.953 195.416C611.449 196.219 610.917 197.003 610.357 197.768C609.816 198.515 609.293 199.178 608.789 199.756C608.528 199.551 608.201 199.327 607.809 199.084C607.417 198.842 607.062 198.646 606.745 198.496C607.23 197.955 607.706 197.339 608.173 196.648C608.658 195.958 609.106 195.258 609.517 194.548C609.928 193.839 610.245 193.214 610.469 192.672V192.168Z" fill="white"/>
<path d="M573.674 191.048V194.128H583.25V191.048H573.674ZM573.674 185.868V188.92H583.25V185.868H573.674ZM571.266 183.6H585.77V196.396H571.266V183.6ZM571.014 199.28H586.134V201.688H571.014V199.28ZM568.942 205.048H587.058V207.456H568.942V205.048ZM561.046 184.132H570.034V186.596H561.046V184.132ZM561.326 192.224H569.614V194.66H561.326V192.224ZM560.738 202.892C561.522 202.686 562.409 202.434 563.398 202.136C564.388 201.837 565.433 201.51 566.534 201.156C567.636 200.801 568.737 200.446 569.838 200.092L570.286 202.612C568.756 203.134 567.206 203.657 565.638 204.18C564.07 204.702 562.652 205.178 561.382 205.608L560.738 202.892ZM564.378 185.112H566.898V202.388L564.378 202.836V185.112ZM577.37 184.636H579.638V195.304H579.834V206.14H577.146V195.304H577.37V184.636Z" fill="white"/>
<path d="M530.78 199.588H555.504V201.8H530.78V199.588ZM530.892 187.184H555.42V189.396H530.892V187.184ZM532.012 192.056H554.384V194.184H532.012V192.056ZM533.412 195.892H553.04V197.852H533.412V195.892ZM541.756 193.092H544.36V208.352H541.756V193.092ZM539.236 182.34H541.728V188.22H539.236V182.34ZM544.5 182.34H547.02V188.08H544.5V182.34ZM541.084 200.512L543.212 201.492C542.335 202.444 541.271 203.34 540.02 204.18C538.769 205.02 537.425 205.757 535.988 206.392C534.551 207.045 533.132 207.568 531.732 207.96C531.601 207.717 531.433 207.456 531.228 207.176C531.041 206.915 530.836 206.653 530.612 206.392C530.407 206.131 530.201 205.907 529.996 205.72C531.396 205.421 532.796 205.011 534.196 204.488C535.596 203.965 536.903 203.368 538.116 202.696C539.329 202.005 540.319 201.277 541.084 200.512ZM545.032 200.456C545.629 201.035 546.339 201.595 547.16 202.136C548 202.677 548.915 203.181 549.904 203.648C550.893 204.096 551.92 204.488 552.984 204.824C554.067 205.16 555.149 205.431 556.232 205.636C556.045 205.823 555.831 206.056 555.588 206.336C555.364 206.616 555.149 206.905 554.944 207.204C554.757 207.503 554.599 207.773 554.468 208.016C553.367 207.717 552.275 207.344 551.192 206.896C550.109 206.467 549.064 205.963 548.056 205.384C547.067 204.805 546.133 204.18 545.256 203.508C544.397 202.817 543.641 202.08 542.988 201.296L545.032 200.456ZM550.968 182.648L553.712 183.348C553.283 184.095 552.835 184.841 552.368 185.588C551.92 186.335 551.509 186.979 551.136 187.52L548.98 186.848C549.223 186.456 549.465 186.017 549.708 185.532C549.951 185.028 550.184 184.524 550.408 184.02C550.632 183.516 550.819 183.059 550.968 182.648ZM547.244 188.584L550.016 189.256C549.661 189.909 549.307 190.544 548.952 191.16C548.597 191.757 548.261 192.271 547.944 192.7L545.732 192.056C545.993 191.552 546.264 190.973 546.544 190.32C546.843 189.667 547.076 189.088 547.244 188.584ZM533.02 183.348L535.288 182.564C535.755 183.18 536.203 183.871 536.632 184.636C537.061 185.401 537.379 186.073 537.584 186.652L535.176 187.52C535.008 186.96 534.719 186.288 534.308 185.504C533.897 184.72 533.468 184.001 533.02 183.348ZM536.632 189.508L539.18 189.06C539.479 189.489 539.759 189.975 540.02 190.516C540.281 191.057 540.468 191.524 540.58 191.916L537.92 192.42C537.827 192.028 537.659 191.561 537.416 191.02C537.173 190.46 536.912 189.956 536.632 189.508Z" fill="white"/>
<path d="M512.159 184.888C511.599 185.784 510.909 186.699 510.087 187.632C509.285 188.565 508.379 189.499 507.371 190.432C506.363 191.347 505.299 192.224 504.179 193.064C503.059 193.904 501.911 194.669 500.735 195.36C500.623 195.155 500.465 194.921 500.259 194.66C500.073 194.399 499.867 194.147 499.643 193.904C499.438 193.643 499.233 193.419 499.027 193.232C500.67 192.336 502.238 191.281 503.731 190.068C505.243 188.836 506.597 187.539 507.791 186.176C509.005 184.813 509.966 183.507 510.675 182.256H513.391C514.138 183.357 514.987 184.431 515.939 185.476C516.891 186.521 517.899 187.511 518.963 188.444C520.027 189.359 521.129 190.199 522.267 190.964C523.406 191.729 524.535 192.373 525.655 192.896C525.319 193.213 524.993 193.587 524.675 194.016C524.377 194.445 524.106 194.856 523.863 195.248C522.762 194.613 521.651 193.895 520.531 193.092C519.411 192.271 518.329 191.412 517.283 190.516C516.238 189.601 515.277 188.668 514.399 187.716C513.541 186.745 512.794 185.803 512.159 184.888ZM512.355 196.368H521.679V198.776H512.355V196.368ZM500.371 205.16H524.283V207.568H500.371V205.16ZM511.067 190.068H513.867V206.448H511.067V190.068ZM503.703 195.024H506.307V206.364H503.703V195.024Z" fill="white"/>
<path d="M599.603 471.592V478.956C601.115 478.732 602.655 478.452 604.195 478.2L604.307 480.552C600.219 481.28 595.823 482.008 592.659 482.568L592.071 480.132C593.499 479.936 595.235 479.684 597.167 479.376V471.592H592.519V469.296H597.167V466.776H594.115V465.656C593.779 465.992 593.415 466.328 593.023 466.636C592.687 466.104 591.875 465.236 591.371 464.872C594.087 462.716 596.019 459.832 597.055 457.508H599.435C601.339 459.076 603.747 461.316 604.923 462.912L603.131 464.956C602.179 463.556 600.331 461.428 598.595 459.944C597.755 461.372 596.635 462.996 595.179 464.564H602.767V466.776H599.603V469.296H604.139V471.592H599.603ZM593.023 473.328L594.899 472.88C595.459 474.448 595.907 476.492 596.075 477.836L594.143 478.396C594.031 477.024 593.527 474.952 593.023 473.328ZM602.207 477.92L600.359 477.416C600.835 476.128 601.423 474.028 601.675 472.6L603.859 473.16C603.299 474.812 602.683 476.716 602.207 477.92ZM617.635 466.552V469.128H612.203V483.156H609.515V469.128H603.999V466.552H609.515V457.732H612.203V466.552H617.635Z" fill="white"/>
<path d="M586.359 464.648H572.611C572.527 466.02 572.415 467.42 572.247 468.792H583.167C583.167 468.792 583.139 469.604 583.083 469.996C582.579 477.78 581.991 480.888 580.899 482.036C580.171 482.82 579.415 483.016 578.267 483.1C577.259 483.184 575.411 483.156 573.535 483.072C573.507 482.316 573.143 481.252 572.639 480.524C574.571 480.692 576.531 480.72 577.315 480.72C577.931 480.72 578.295 480.664 578.659 480.356C579.415 479.712 579.947 477.08 580.339 471.256H571.827C570.819 476.1 568.551 480.58 562.923 483.352C562.531 482.652 561.747 481.7 561.047 481.196C568.663 477.696 569.419 470.864 569.727 464.648H561.439V462.156H572.443V457.396H575.103V462.156H586.359V464.648Z" fill="white"/>
<path d="M550.324 479.992V476.772H536.296V479.992H550.324ZM538.312 467.84V470.528H548V467.84H538.312ZM550.548 472.488H544.164C543.884 473.188 543.604 473.888 543.352 474.504H552.928V483.212H550.324V482.232H536.296V483.24H533.804V474.504H540.804C541 473.86 541.168 473.132 541.336 472.488H535.904V465.908H550.548V472.488ZM550.688 461.876H554.86V467.532H552.368V464.088H534.056V467.532H531.648V461.876H535.344C534.84 460.924 534 459.748 533.244 458.852L535.512 457.9C536.464 458.964 537.584 460.448 538.06 461.484L537.192 461.876H542.148C541.756 460.812 540.916 459.328 540.16 458.208L542.428 457.424C543.296 458.572 544.248 460.196 544.612 461.232L542.96 461.876H547.86C548.784 460.7 549.904 458.964 550.548 457.704L553.32 458.572C552.452 459.72 551.528 460.896 550.688 461.876Z" fill="white"/>
<path d="M520.615 461.12H514.063C514.847 462.688 515.911 464.088 517.283 465.292C518.627 464.088 519.775 462.716 520.615 461.12ZM522.407 458.768L524.115 459.524C523.079 462.548 521.427 464.928 519.355 466.832C521.119 467.924 523.191 468.764 525.515 469.268C524.983 469.8 524.255 470.78 523.947 471.424C521.455 470.752 519.243 469.744 517.339 468.4C515.379 469.744 513.167 470.78 510.787 471.536C510.479 470.864 509.835 469.884 509.331 469.352C511.459 468.764 513.531 467.896 515.323 466.748C513.811 465.292 512.579 463.584 511.655 461.624L513.195 461.12H510.059V458.88H521.903L522.407 458.768ZM500.707 473.524L502.919 473.916C502.555 476.548 501.911 479.264 501.043 481.056C500.623 480.748 499.587 480.272 499.055 480.076C499.895 478.396 500.427 475.932 500.707 473.524ZM507.875 471.62L506.055 471.732V483.24H503.731V471.872C502.191 471.956 500.763 472.04 499.503 472.124L499.279 469.828L501.239 469.772C501.743 469.1 502.303 468.344 502.835 467.56C501.967 466.3 500.595 464.788 499.363 463.64L500.623 461.932C500.875 462.128 501.127 462.352 501.379 462.576C502.247 461.036 503.171 459.02 503.675 457.508L505.971 458.404C504.991 460.28 503.815 462.436 502.807 463.976C503.311 464.508 503.787 465.04 504.151 465.516C505.159 463.864 506.111 462.156 506.811 460.728L508.967 461.708C507.399 464.256 505.383 467.308 503.563 469.66C504.683 469.632 505.859 469.576 507.063 469.492C506.699 468.708 506.307 467.924 505.915 467.224L507.679 466.496C508.799 468.316 509.891 470.724 510.227 472.292L508.323 473.132C508.239 472.684 508.071 472.18 507.875 471.62ZM506.587 473.916L508.463 473.3C509.163 474.896 509.919 476.996 510.227 478.368L508.239 479.04C507.959 477.668 507.287 475.54 506.587 473.916ZM518.711 476.072V480.104H525.179V482.4H509.359V480.104H516.135V476.072H511.095V473.776H516.135V470.08H518.711V473.776H523.947V476.072H518.711Z" fill="white"/>
<path d="M599.603 763.592V770.956C601.115 770.732 602.655 770.452 604.195 770.2L604.307 772.552C600.219 773.28 595.823 774.008 592.659 774.568L592.071 772.132C593.499 771.936 595.235 771.684 597.167 771.376V763.592H592.519V761.296H597.167V758.776H594.115V757.656C593.779 757.992 593.415 758.328 593.023 758.636C592.687 758.104 591.875 757.236 591.371 756.872C594.087 754.716 596.019 751.832 597.055 749.508H599.435C601.339 751.076 603.747 753.316 604.923 754.912L603.131 756.956C602.179 755.556 600.331 753.428 598.595 751.944C597.755 753.372 596.635 754.996 595.179 756.564H602.767V758.776H599.603V761.296H604.139V763.592H599.603ZM593.023 765.328L594.899 764.88C595.459 766.448 595.907 768.492 596.075 769.836L594.143 770.396C594.031 769.024 593.527 766.952 593.023 765.328ZM602.207 769.92L600.359 769.416C600.835 768.128 601.423 766.028 601.675 764.6L603.859 765.16C603.299 766.812 602.683 768.716 602.207 769.92ZM617.635 758.552V761.128H612.203V775.156H609.515V761.128H603.999V758.552H609.515V749.732H612.203V758.552H617.635Z" fill="white"/>
<path d="M570.624 761.352L570.96 763.76L567.46 764.768V772.3C567.46 773.644 567.18 774.344 566.368 774.736C565.528 775.128 564.324 775.212 562.448 775.184C562.364 774.54 562 773.476 561.692 772.804C562.868 772.86 564.016 772.86 564.352 772.832C564.744 772.832 564.884 772.72 564.884 772.3V765.524C563.68 765.888 562.532 766.196 561.496 766.476L560.824 763.956C561.944 763.676 563.344 763.368 564.884 762.948V757.376H561.216V754.968H564.884V749.536H567.46V754.968H570.512V757.376H567.46V762.22C568.496 761.94 569.56 761.66 570.624 761.352ZM582.832 764.992H574.6V767.344H582.832V764.992ZM574.6 771.824H582.832V769.388H574.6V771.824ZM572.136 775.184V762.836H585.408V775.044H582.832V773.924H574.6V775.184H572.136ZM576.784 758.468H582.44C583.896 758.468 584.12 757.964 584.316 755.108C584.904 755.528 585.996 755.892 586.668 756.06C586.332 759.84 585.548 760.82 582.608 760.82H576.588C573.088 760.82 572.164 760.064 572.164 757.32V749.592H574.74V753.54C577.82 752.868 581.068 751.916 583.056 750.992L584.988 752.896C582.188 754.044 578.24 754.996 574.74 755.64V757.32C574.74 758.3 575.076 758.468 576.784 758.468Z" fill="white"/>
<path d="M538.509 769.416V771.32C540.245 771.152 542.037 770.984 543.801 770.788C546.097 767.624 546.797 763.396 547.021 758.3H544.053V756.2H538.509V757.656H543.717V766.084H538.509V767.512H543.773V769.416H538.509ZM533.245 764.376H536.129V762.668H533.245V764.376ZM541.505 762.668H538.509V764.376H541.505V762.668ZM538.509 761.072H541.505V759.364H538.509V761.072ZM533.245 759.364V761.072H536.129V759.364H533.245ZM549.569 755.892H555.365C555.365 755.892 555.337 756.788 555.337 757.096C555.029 768.66 554.777 772.636 553.881 773.84C553.349 774.68 552.761 774.904 551.893 775.044C551.053 775.156 549.765 775.156 548.449 775.072C548.393 774.372 548.113 773.308 547.721 772.608C549.009 772.72 550.157 772.72 550.661 772.72C551.137 772.72 551.389 772.636 551.669 772.272C552.285 771.488 552.565 767.932 552.789 758.3H549.485C549.121 765.748 547.861 771.684 543.045 775.38C542.653 774.792 541.785 773.868 541.169 773.448C541.337 773.336 541.505 773.196 541.673 773.056C537.641 773.532 533.609 773.952 530.613 774.232L530.277 772.02C531.901 771.908 533.917 771.74 536.129 771.544V769.416H531.033V767.512H536.129V766.084H531.117V757.656H536.129V756.2H530.361V754.268H536.129V752.7C534.421 752.84 532.713 752.924 531.145 752.98C531.061 752.448 530.781 751.608 530.529 751.104C534.673 750.88 539.629 750.376 542.541 749.732L543.773 751.692C542.289 752 540.441 752.28 538.509 752.476V754.268H544.165V755.892H547.105C547.133 753.988 547.133 752 547.133 749.9H549.625C549.625 751.972 549.597 753.988 549.569 755.892Z" fill="white"/>
<path d="M524.199 751.132V753.624H510.619V751.132H524.199ZM505.691 749.48L508.183 750.516C506.279 753.008 503.367 755.78 500.791 757.6C500.483 757.012 499.783 756.004 499.307 755.5C501.631 753.988 504.319 751.496 505.691 749.48ZM506.783 755.472L509.247 756.396C508.379 757.824 507.343 759.28 506.195 760.68V775.268H503.591V763.564C502.667 764.488 501.715 765.356 500.819 766.084C500.483 765.524 499.559 764.376 499.027 763.872C501.883 761.828 504.907 758.636 506.783 755.472ZM524.983 758.776V761.268H520.951V772.048C520.951 773.532 520.615 774.288 519.551 774.708C518.515 775.1 516.863 775.128 514.259 775.128C514.147 774.372 513.783 773.28 513.419 772.524C515.211 772.58 517.087 772.58 517.591 772.552C518.123 772.552 518.291 772.412 518.291 772.02V761.268H509.443V758.776H524.983Z" fill="white"/>
<path d="M622.979 312.276C622.979 309.864 622.367 308.388 620.855 306.624L621.071 306.3C621.899 306.336 622.979 306.552 623.699 306.876C625.499 307.704 627.119 309.576 627.119 310.8C627.119 311.772 626.795 312.456 626.471 313.284C626.075 314.436 625.823 315.516 625.751 316.236C625.715 316.92 625.967 316.956 626.291 316.344C628.163 312.996 630.395 311.052 632.843 311.052C636.947 311.052 639.683 314.832 639.683 322.608C639.683 330.78 635.435 337.116 624.491 338.952L624.203 338.304C633.671 334.524 635.219 327.936 635.219 321.96C635.219 315.624 633.887 312.924 631.763 312.924C630.395 312.924 628.631 314.22 627.407 316.704C626.291 318.9 625.751 321.06 625.751 323.328C625.751 325.02 626.003 326.244 626.003 327.864C626.003 328.944 625.247 329.628 624.203 329.628C623.159 329.628 622.475 329.124 622.007 328.08C621.575 327.036 621.395 325.56 621.395 324.156C621.395 320.664 622.979 314.652 622.979 312.276Z" fill="white"/>
<path d="M595.081 309.72C595.081 308.928 594.289 307.992 593.245 307.056L593.605 306.516C594.721 306.624 595.729 306.768 596.629 307.2C598.681 308.244 600.373 310.332 600.373 311.592C600.373 312.744 599.257 313.032 597.709 314.076C595.081 315.912 590.797 319.332 589.285 320.844C588.349 321.78 587.989 322.248 587.989 322.716C587.989 323.22 588.529 323.724 589.285 324.228C592.741 326.676 596.773 329.016 599.221 332.112C600.481 333.696 600.913 334.884 600.913 336.108C600.913 337.26 600.301 338.592 598.429 338.592C597.457 338.592 596.737 337.98 596.305 337.296C595.873 336.504 595.477 335.676 594.505 334.128C593.101 331.86 590.293 329.088 586.081 325.488C585.181 324.768 584.785 323.868 584.785 323.184C584.785 322.428 585.073 321.78 585.829 320.88C587.737 318.54 592.921 313.14 594.325 311.304C594.865 310.62 595.081 310.224 595.081 309.72Z" fill="white"/>
<path d="M570.925 314.76C570.277 314.76 569.773 314.292 569.161 313.536C568.369 312.456 567.433 311.16 565.525 309.828L565.813 309.324C567.649 309.684 569.629 310.404 570.745 311.268C571.645 311.916 572.041 312.6 572.077 313.32C572.113 314.076 571.681 314.76 570.925 314.76ZM573.985 311.772C573.301 311.808 572.869 311.304 572.149 310.476C571.429 309.648 570.313 308.388 568.441 307.2L568.657 306.696C570.709 306.984 572.581 307.524 573.769 308.28C574.633 308.856 575.137 309.504 575.173 310.404C575.209 311.16 574.705 311.772 573.985 311.772ZM541.693 318.72L542.197 318.468C542.701 319.08 543.637 319.836 544.609 319.836C545.077 319.836 545.653 319.728 546.805 319.152C551.089 317.316 556.525 313.824 562.429 313.824C569.053 313.824 573.157 318.288 573.157 323.076C573.157 327.9 570.277 330.816 566.605 332.76C562.717 334.848 556.345 335.28 551.053 334.884L550.945 334.056C555.949 333.48 559.837 332.688 563.545 330.456C566.677 328.692 568.729 326.1 568.729 322.5C568.729 318.972 566.425 315.804 562.321 315.804C557.569 315.804 552.313 320.448 550.261 322.068C548.317 323.616 547.525 324.624 546.193 324.624C544.717 324.624 542.557 322.968 541.981 321.42C541.621 320.556 541.693 319.512 541.693 318.72Z" fill="white"/>
<path d="M517.103 310.512L520.415 314.076C520.091 314.4 519.659 314.472 518.795 314.58C517.859 316.488 516.527 318.432 514.943 320.232C522.719 322.104 520.163 327.828 517.031 325.74C516.635 324.3 515.663 322.68 514.619 321.384V337.908C514.619 338.16 513.251 339.168 511.235 339.168H510.443V324.408C508.715 325.74 506.843 326.892 504.863 327.792L504.539 327.468C509.075 323.76 512.891 318.396 514.511 313.68H505.763L505.439 312.708H510.479V305.688L515.771 306.12C515.699 306.624 515.411 306.984 514.439 307.128V312.708H514.799L517.103 310.512ZM532.871 336.648L535.139 333.516C535.139 333.516 537.731 335.676 539.243 337.116C539.135 337.512 538.739 337.692 538.235 337.692H516.743L516.455 336.648H525.563V319.404H519.299L519.011 318.396H525.563V305.724L531.251 306.3C531.179 306.84 530.891 307.2 529.955 307.308V318.396H532.295L534.491 315.336C534.491 315.336 536.975 317.423 538.451 318.827C538.379 319.223 537.983 319.404 537.443 319.404H529.955V336.648H532.871Z" fill="white"/>
<path d="M494.71 324.552L497.158 321.528C497.158 321.528 499.93 323.58 501.622 325.02C501.514 325.416 501.154 325.596 500.614 325.596H485.746C483.982 328.368 481.678 331.5 479.59 333.876C483.55 333.732 488.338 333.48 493.45 333.192C492.262 331.284 490.822 329.448 489.418 328.008L489.742 327.792C503.962 331.752 500.614 341.904 495.826 338.484C495.466 337.08 494.818 335.604 493.99 334.164C489.67 335.316 483.766 336.612 475.198 338.34C474.982 338.772 474.55 339.06 474.154 339.132L471.634 334.128C473.11 334.128 475.198 334.056 477.718 333.948C478.69 331.428 479.698 328.152 480.346 325.596H471.166L470.878 324.552H494.71ZM488.518 318.252L490.75 315.408C490.75 315.408 493.342 317.352 494.926 318.72C494.818 319.116 494.458 319.296 493.954 319.296H477.394L477.106 318.252H488.518ZM483.154 305.076L489.814 306.732C489.67 307.236 489.166 307.452 488.014 307.56C491.254 311.736 497.878 314.652 503.278 315.876L503.242 316.452C501.298 317.028 500.11 319.008 499.786 320.664C494.278 318.144 489.598 313.536 487.438 307.992C484.162 313.32 476.53 318.72 469.15 321.312L468.898 320.916C475.198 317.244 481.678 310.08 483.154 305.076Z" fill="white"/>
<path d="M683.138 284.488C683.75 284.488 684.29 284.452 684.83 284.416C684.398 282.004 682.958 280.456 680.978 280.456C679.61 280.456 678.71 281.14 678.71 282.256C678.71 283.624 680.366 284.488 683.138 284.488ZM675.038 258.82L675.542 258.784C676.154 259.936 677.054 260.98 677.99 260.98C679.286 260.98 683.066 260.08 685.01 259.468C686.414 259 686.414 258.46 687.17 258.46C688.862 258.46 691.706 260.728 691.706 262.276C691.706 263.284 690.446 263.572 689.258 264.4C686.882 265.948 682.454 269.764 681.086 271.204C680.69 271.6 680.906 271.852 681.266 271.744C682.454 271.348 684.506 270.52 687.278 270.52C692.138 270.52 696.206 273.544 696.17 278.944C696.134 283.768 691.85 287.656 684.434 287.656C680.222 287.656 677.09 285.82 677.09 282.688C677.09 280.312 679.25 278.764 681.914 278.764C684.362 278.764 687.314 280.132 688.178 283.66C691.166 282.436 692.39 280.132 692.426 277.648C692.462 274.48 690.338 272.032 686.198 272.032C681.266 272.032 677.81 275.632 674.75 279.592C673.886 280.708 673.526 281.032 672.626 280.996C671.834 280.96 671.042 280.024 671.114 278.656C671.186 277.684 671.762 276.892 672.95 275.74C676.478 272.284 684.038 265.156 685.91 262.6C686.522 261.808 686.162 261.556 685.586 261.664C684.254 261.88 682.022 263.104 680.654 263.896C679.97 264.328 679.358 264.868 678.602 264.868C676.478 264.868 674.858 262.42 674.75 261.16C674.714 260.332 674.822 259.72 675.038 258.82Z" fill="white"/>
<path d="M639.793 275.416L636.949 279.772C637.705 280.492 638.533 281.284 638.893 281.644C639.397 282.076 639.685 281.968 639.721 281.284C639.757 280.024 639.721 277.792 639.793 275.416ZM665.389 278.908L665.785 279.304C664.489 282.004 661.825 285.1 657.865 285.1C654.949 285.1 653.221 283.48 653.221 279.664C653.221 275.344 654.589 271.492 654.589 267.532C654.589 265.336 654.085 264.148 652.321 264.148C649.261 264.148 645.445 267.172 642.493 270.988C642.457 271.42 642.421 271.816 642.385 272.176C642.169 275.092 642.457 278.728 642.709 280.96C642.853 282.4 643.105 283.372 643.105 284.38C643.105 286.504 642.025 288.196 640.657 288.196C639.397 288.196 638.929 287.512 638.785 286.504C638.605 285.532 638.389 284.596 637.993 283.552C637.669 282.724 637.093 281.608 636.409 280.6L635.293 282.328C634.645 283.336 634.105 284.2 633.205 284.2C632.413 284.236 631.621 283.48 631.621 282.22C631.621 281.176 631.945 280.384 632.665 279.628C634.321 277.936 637.597 273.976 640.117 270.268C640.153 269.584 640.225 268.9 640.297 268.216C639.361 268.756 638.425 269.296 637.921 269.62C637.201 270.16 636.841 271.204 636.085 271.204C634.465 271.204 632.521 269.332 632.053 267.82C631.873 267.244 631.981 266.38 632.017 265.768L632.521 265.624C633.133 266.488 633.709 267.172 634.537 267.172C635.653 267.172 638.749 265.696 640.657 264.724C640.873 262.744 641.053 261.088 641.053 260.296C641.053 259.504 640.945 259.288 640.297 258.928C639.757 258.64 639.037 258.316 638.065 258.064V257.452C639.001 257.02 639.901 256.768 640.945 256.768C642.925 256.768 645.373 258.892 645.373 260.224C645.373 261.052 644.905 261.592 644.437 262.744C644.257 263.176 644.077 263.752 643.861 264.436C644.509 264.976 645.157 265.696 645.157 266.02C645.157 266.164 645.121 266.308 645.085 266.416C647.605 264.328 650.773 262.384 653.581 262.384C657.109 262.384 658.477 264.436 658.477 268.036C658.477 271.384 657.109 275.056 657.109 278.8C657.109 280.672 657.757 281.392 659.341 281.392C661.501 281.392 663.301 280.564 665.389 278.908Z" fill="white"/>
<path d="M605.519 259.72L605.375 259.18C606.491 258.388 607.895 257.668 609.335 257.668C611.387 257.668 612.971 258.316 613.187 259.18C613.691 261.088 614.123 262.348 614.699 263.572C618.191 262.06 619.307 260.548 620.099 260.368C620.999 260.26 622.151 260.368 622.763 261.016C623.303 261.628 623.231 262.636 622.547 263.284C621.503 264.292 618.983 265.624 616.319 266.668C618.155 269.584 620.639 271.888 622.511 273.688C623.375 274.516 623.663 275.056 623.699 275.884C623.699 277.144 623.051 279.16 621.719 279.16C620.639 279.16 619.919 278.476 618.731 277.684C616.895 276.496 614.159 274.984 610.163 274.984C606.419 274.984 603.899 277 603.899 279.7C603.899 281.968 606.347 283.66 611.387 283.66C613.907 283.66 615.419 283.264 616.823 283.264C618.407 283.264 619.847 283.84 619.847 285.352C619.847 286.792 617.975 287.764 612.647 287.764C605.843 287.764 600.947 285.208 600.947 280.6C600.947 276.532 605.231 273.364 611.063 273.364C614.195 273.364 616.751 273.904 618.155 274.228C618.587 274.3 618.659 274.228 618.335 273.868C617.003 272.392 615.095 269.98 613.511 267.676C611.243 268.36 608.399 268.972 606.131 269.008C601.523 269.08 600.335 267.496 598.715 263.788L599.219 263.392C601.559 265.336 602.999 265.804 605.483 265.768C607.103 265.768 609.515 265.3 611.675 264.652C610.919 263.356 610.163 261.988 609.587 261.088C608.975 260.152 607.571 259.864 605.519 259.72Z" fill="white"/>
<path d="M569.737 264.4H575.821C575.353 264.328 574.885 264.148 574.417 263.716C574.453 262.276 573.841 260.62 573.193 259.54C571.141 259.612 569.053 259.648 567.001 259.648C572.365 260.728 571.645 263.896 569.737 264.4ZM576.325 264.4H580.429C581.329 262.816 582.193 260.692 582.733 259.036C580.177 259.252 577.405 259.396 574.489 259.504C579.385 260.944 578.305 264.148 576.325 264.4ZM587.233 265.408H565.093C565.093 267.64 564.121 269.152 562.897 269.8C561.781 270.412 560.197 270.124 559.801 268.864C559.441 267.676 560.197 266.776 561.277 266.272C562.573 265.696 563.977 264.076 563.941 262.276H564.481C564.769 263.032 564.913 263.752 565.021 264.4H568.729C568.369 264.328 568.009 264.112 567.649 263.824C567.649 262.42 566.929 260.764 566.173 259.792L566.353 259.648C564.985 259.648 563.581 259.648 562.249 259.612L562.177 258.964C570.241 258.352 580.501 256.696 585.973 255.22L589.393 258.82C588.961 259.108 588.205 259.108 587.161 258.64C585.865 258.784 584.461 258.928 582.949 259.036L587.773 260.872C587.593 261.268 587.161 261.52 586.369 261.412C585.253 262.348 583.597 263.464 581.905 264.4H587.161L589.249 262.348L592.849 265.768C592.561 266.056 592.201 266.128 591.445 266.164C590.293 266.992 588.421 267.964 586.837 268.612C591.229 271.096 588.853 275.452 585.865 273.508C585.325 271.348 583.489 268.936 581.833 267.46L582.121 267.208C583.741 267.424 585.037 267.784 586.081 268.216C586.477 267.388 586.909 266.308 587.233 265.408ZM573.373 266.272L573.625 265.984C582.049 265.516 579.853 271.924 576.433 270.124C576.001 268.72 574.561 267.1 573.373 266.272ZM567.361 267.136L567.901 267.172C569.053 270.844 567.613 273.256 565.885 274.048C564.697 274.588 563.149 274.228 562.825 273.004C562.537 271.852 563.257 270.988 564.301 270.52C565.669 270.088 567.253 268.756 567.361 267.136ZM580.465 278.26H572.797C572.509 278.512 572.185 278.8 571.861 279.052C573.085 280.348 574.669 281.392 576.505 282.22C578.089 281.032 579.421 279.736 580.465 278.26ZM583.129 275.128L586.693 278.548C586.441 278.908 586.045 279.016 585.109 279.052C583.741 280.744 582.085 282.22 580.177 283.48C583.957 284.452 588.385 284.848 592.849 284.884V285.352C591.193 285.892 590.221 287.26 589.861 289.276C584.749 288.592 580.393 287.44 576.937 285.316C572.221 287.548 566.389 288.808 559.801 289.24L559.621 288.7C565.309 287.656 570.493 285.964 574.525 283.516C573.265 282.4 572.185 281.068 571.285 279.484C568.225 281.788 564.265 283.804 560.341 284.884L560.053 284.416C564.409 282.076 568.765 277.936 571.033 274.336C570.061 273.94 569.845 273.184 569.845 271.78V266.776L574.309 267.172C574.273 267.604 573.913 267.928 573.265 268.036V271.132C573.265 271.492 573.337 271.6 574.345 271.6H577.153H579.601C579.961 271.564 580.213 271.528 580.393 271.312C580.681 270.952 581.077 270.052 581.545 268.864H581.941L582.049 271.312C583.021 271.672 583.273 272.068 583.273 272.644C583.273 274.084 581.905 274.624 576.793 274.624H573.985L576.217 275.704C576.073 276.028 575.677 276.172 574.993 276.064C574.669 276.46 574.309 276.856 573.913 277.252H580.645L583.129 275.128Z" fill="white"/>
<path d="M533.699 272.392L534.491 272.752C533.771 274.696 532.511 277.828 532.187 279.16C531.899 280.6 531.719 281.356 531.719 281.932C531.719 283.228 532.511 284.452 532.511 285.532C532.511 286.828 531.863 287.584 530.675 287.584C529.811 287.584 528.947 286.936 528.227 285.964C526.895 284.164 526.031 281.356 526.031 277.324C526.031 274.012 527.039 270.232 527.615 268.072C528.047 266.344 528.407 264.868 528.443 263.284C528.443 261.628 527.507 260.08 526.571 259.036L526.931 258.64C528.119 258.928 528.911 259.252 529.775 259.828C530.891 260.548 532.835 262.528 532.835 264.508C532.835 265.516 532.331 266.236 531.467 267.892C530.099 270.268 528.731 273.58 528.731 276.64C528.731 277.756 528.911 278.476 529.127 278.908C529.343 279.448 529.667 279.484 530.027 278.944C530.927 277.648 532.763 274.192 533.699 272.392ZM537.227 275.56L537.839 275.488C538.055 276.352 538.343 277.432 538.775 278.188C540.179 280.672 541.871 281.608 546.371 281.608C550.007 281.608 551.483 280.924 552.239 280.924C553.787 280.924 555.407 281.608 555.407 282.976C555.407 285.208 551.771 285.676 547.415 285.676C540.611 285.676 537.803 282.76 537.263 278.584C537.119 277.504 537.155 276.424 537.227 275.56ZM538.379 265.912L538.127 265.3C540.863 262.816 544.715 261.916 547.415 261.916C549.827 261.916 551.303 262.204 552.527 262.852C553.643 263.464 553.931 264.184 553.931 264.832C553.931 265.732 553.463 266.164 552.563 266.344C551.483 266.524 550.187 266.56 548.711 266.992C547.091 267.532 544.715 268.648 542.771 269.836L542.303 269.296C543.887 267.964 545.687 266.452 546.299 265.768C546.659 265.336 546.839 264.976 544.211 264.976C543.131 264.976 541.403 265.084 538.379 265.912Z" fill="white"/>
<path d="M495.574 258.064V257.56C496.258 257.2 497.518 256.84 498.49 256.84C499.894 256.84 501.118 257.236 501.874 257.776C502.594 258.352 502.234 259.468 501.19 262.564C503.818 261.7 504.646 261.016 505.114 261.016C505.942 261.016 506.986 261.592 506.986 262.744C506.986 263.536 506.482 264.004 505.87 264.4C504.61 265.192 502.378 265.912 499.93 266.416C498.742 270.088 496.582 276.208 493.882 280.528C492.982 281.932 492.262 282.868 491.254 282.868C490.03 282.868 489.346 281.68 489.346 280.456C489.346 279.592 489.562 278.908 490.21 278.116C492.586 275.236 495.034 271.6 496.618 266.956C495.718 267.064 494.89 267.1 494.098 267.1C491.11 267.1 489.742 266.2 488.734 262.204L489.274 261.916C490.786 263.068 491.938 263.932 494.242 263.932C495.286 263.932 496.546 263.752 497.626 263.536C497.878 262.42 498.022 261.412 498.058 260.548C498.058 259.792 497.77 259.36 497.158 258.892C496.582 258.46 495.934 258.208 495.574 258.064ZM507.31 281.608C507.31 281.284 507.31 280.96 507.31 280.636C506.302 280.384 505.186 280.276 503.998 280.276C501.082 280.276 499.714 281.608 499.714 282.76C499.714 283.948 500.686 284.812 503.206 284.812C505.87 284.812 507.31 283.66 507.31 281.608ZM508.93 264.472L508.894 263.824C510.946 263.176 513.034 263.248 514.51 263.68C516.958 264.436 518.47 266.056 518.47 268.072C518.47 269.224 518.074 270.052 516.922 270.052C515.518 270.052 514.546 268.972 512.566 269.008C511.522 269.044 510.406 269.44 509.866 270.196C509.326 270.988 509.398 272.212 509.614 273.616C509.758 274.66 510.118 276.424 510.442 278.368C512.314 278.836 513.79 279.52 514.978 280.204C517.246 281.392 518.83 282.904 518.83 284.488C518.83 285.892 518.002 286.504 517.174 286.504C516.094 286.504 515.59 285.496 514.186 284.272C513.286 283.444 512.206 282.616 510.874 281.932C510.91 282.364 510.91 282.796 510.91 283.228C510.91 286.432 508.462 288.124 504.322 288.124C500.362 288.124 497.986 286.108 497.986 283.444C497.986 280.528 500.866 277.864 506.122 277.864C506.482 277.864 506.842 277.864 507.202 277.9C507.13 276.748 507.094 275.632 507.094 274.66C507.094 272.392 507.49 270.808 508.57 269.548C509.938 267.892 511.774 267.208 512.89 266.632C513.07 266.308 512.926 265.984 512.566 265.696C511.774 265.012 510.478 264.616 508.93 264.472Z" fill="white"/>
<path d="M465.769 259.792C465.229 259.324 464.257 258.856 463.609 258.604L463.681 258.064C464.545 257.74 465.877 257.596 466.669 257.74C469.513 258.136 471.421 260.404 471.421 261.844C471.421 262.672 470.269 263.068 469.261 264.112C467.425 265.984 464.293 270.052 462.817 272.5C462.709 272.716 462.781 272.824 463.033 272.68C464.761 271.816 466.381 271.42 467.533 271.42C470.593 271.42 472.285 272.968 472.501 275.74C472.609 277.432 472.537 279.052 472.537 281.032C472.537 282.832 473.509 283.444 474.985 283.444C478.801 283.444 482.005 279.196 483.481 275.308L484.057 275.452C483.265 283.912 478.945 287.404 473.941 287.404C470.485 287.404 468.613 285.496 468.577 282.544C468.541 280.06 468.973 278.08 468.973 275.776C468.973 274.264 468.433 273.04 466.489 273.04C463.573 273.04 461.053 276.244 459.757 279.196C458.857 281.284 458.245 283.48 457.633 285.172C457.237 286.252 456.589 287.224 455.257 287.224C453.889 287.224 453.133 285.856 453.133 284.56C453.133 282.688 455.077 280.06 457.057 276.64C459.433 272.536 464.869 263.464 465.949 261.376C466.273 260.656 466.165 260.152 465.769 259.792Z" fill="white"/>
<path d="M421.632 279.484C422.496 278.224 424.08 275.56 425.124 273.724C421.56 274.3 418.536 276.244 418.14 278.26C417.888 279.52 418.716 281.032 419.544 281.032C420.336 281.032 420.84 280.636 421.632 279.484ZM438.552 269.044V268.54C439.236 268.108 440.136 267.712 441 267.748C442.692 267.82 444.672 269.368 444.672 270.412C444.672 271.06 444.492 271.888 444.384 272.608C444.24 273.292 444.06 274.372 443.772 275.56C444.996 276.316 446.148 277.144 446.868 277.792C447.732 278.62 448.344 279.448 448.308 280.924C448.272 281.824 447.768 282.796 446.436 282.796C445.176 282.796 444.168 281.5 442.332 279.808C439.884 284.632 434.844 287.44 427.896 288.52L427.572 287.872C433.728 285.676 437.436 282.04 439.308 277.36C437.04 275.668 433.872 273.868 428.436 273.616C426.96 276.568 425.16 280.816 424.332 282.04C422.892 284.272 421.668 285.208 419.688 285.208C417.6 285.208 416.088 281.824 416.448 278.836C416.88 275.02 421.812 272.536 426.204 271.816C428.04 268.612 431.064 263.716 431.604 262.564C431.964 261.844 431.676 261.556 431.064 261.772C429.984 262.168 428.4 263.068 427.392 263.716C426.852 264.112 426.204 264.76 425.376 264.76C423.792 264.76 421.848 262.6 421.74 261.304C421.668 260.62 421.812 259.828 421.92 259.18L422.424 259.072C423.108 260.116 423.576 260.908 424.656 260.908C426.06 260.908 428.868 260.08 430.452 259.54C431.856 259.036 432.36 258.352 433.044 258.352C434.376 258.352 437.436 260.512 437.436 261.916C437.436 262.888 435.924 263.392 434.808 264.508C433.476 265.84 431.064 269.044 429.552 271.564C434.052 271.672 437.58 272.608 440.352 273.76C440.532 272.68 440.604 271.672 440.604 270.988C440.568 270.34 440.532 270.052 440.064 269.692C439.704 269.404 439.236 269.224 438.552 269.044Z" fill="white"/>
<path d="M646.748 551.4L647.198 551.25C652.448 549.5 653.698 548.3 654.198 548.25C656.098 548 658.448 548.45 658.448 550.4C658.448 551.1 658.098 551.9 656.948 552.65C655.148 553.75 652.498 554.9 649.298 555.85C653.098 561.65 656.098 562.85 656.098 564.85C656.098 567.3 654.698 569.55 653.048 569.55C651.448 569.55 650.648 568.4 647.748 566.75C645.998 565.7 642.348 564.4 638.398 564.4C633.348 564.4 630.298 566.55 630.298 569.45C630.298 573.05 635.198 573.95 639.298 573.95C643.798 573.95 644.248 573.3 647.098 573.3C649.248 573.3 651.098 574.05 651.098 575.9C651.098 578.45 645.998 579.2 640.548 579.2C632.698 579.2 626.448 576.25 626.448 570.7C626.448 566.25 630.998 562.25 639.998 562.25C643.548 562.25 647.148 562.85 649.048 563.25C649.648 563.45 649.698 563.25 649.448 562.8C648.698 561.55 647.198 559.6 645.548 556.85C641.598 557.75 637.198 558.35 632.898 558.35C625.998 558.35 623.048 553.25 629.298 549.1L629.948 549.6C627.798 552.35 628.548 554 632.948 554C636.148 554 639.598 553.45 643.198 552.5C642.448 550.95 641.648 549.25 640.898 547.5C638.298 548 635.598 548.35 633.098 548.35C628.298 548.35 625.998 547.1 623.898 542.35L624.448 541.95C627.198 543.75 628.698 544.35 632.098 544.35C633.948 544.35 636.698 543.9 639.148 543.35C638.798 542.5 638.498 541.65 638.198 540.9C637.648 539.55 637.248 539.05 635.748 538.7C634.898 538.55 633.598 538.35 632.448 538.25L632.298 537.6C633.798 536.25 635.448 535.35 637.498 535.35C640.298 535.35 642.298 535.9 642.548 537.8C642.698 538.85 642.898 540.6 643.248 542.25C647.448 540.9 648.998 539.3 649.548 539.3C651.548 539.3 653.748 539.55 653.748 541.35C653.748 542.05 653.348 542.8 652.298 543.5C650.848 544.45 647.998 545.65 644.648 546.6C645.248 548.3 645.898 549.75 646.748 551.4Z" fill="white"/>
<path d="M576.251 543.05C576.251 539.7 575.401 537.65 573.301 535.2L573.601 534.75C574.751 534.8 576.251 535.1 577.251 535.55C579.751 536.7 582.001 539.3 582.001 541C582.001 542.35 581.551 543.3 581.101 544.45C580.551 546.05 580.201 547.55 580.101 548.55C580.051 549.5 580.401 549.55 580.851 548.7C583.451 544.05 586.551 541.35 589.951 541.35C595.651 541.35 599.451 546.6 599.451 557.4C599.451 568.75 593.551 577.55 578.351 580.1L577.951 579.2C591.101 573.95 593.251 564.8 593.251 556.5C593.251 547.7 591.401 543.95 588.451 543.95C586.551 543.95 584.101 545.75 582.401 549.2C580.851 552.25 580.101 555.25 580.101 558.4C580.101 560.75 580.451 562.45 580.451 564.7C580.451 566.2 579.401 567.15 577.951 567.15C576.501 567.15 575.551 566.45 574.901 565C574.301 563.55 574.051 561.5 574.051 559.55C574.051 554.7 576.251 546.35 576.251 543.05Z" fill="white"/>
<path d="M527.599 557.8C527.599 560.05 527.949 561.8 528.449 563.25C531.249 560.25 534.099 556.2 535.199 553.3C532.799 553.4 530.399 554 527.749 555.2C527.649 556.1 527.599 557 527.599 557.8ZM516.849 570.2C518.949 570.2 521.849 568.75 524.399 566.85C523.849 564.55 523.599 561.9 523.599 559.35C523.599 558.75 523.599 558.1 523.649 557.45C518.699 560.8 515.649 565.65 515.649 568.8C515.649 569.75 515.999 570.2 516.849 570.2ZM533.649 548.65L534.049 548.05C535.999 548.35 537.499 548.9 538.499 549.95C538.949 550.45 539.149 551 539.099 551.6C546.849 552.6 551.549 558.05 551.549 564.1C551.549 574.45 541.599 578.7 527.449 578.75L527.249 577.8C540.349 575.35 545.999 569.45 545.999 562.7C545.999 558.1 543.249 554.55 538.599 553.55C537.049 557.7 533.649 562.7 529.949 566.75C530.499 568 530.999 569.1 530.999 570.35C530.999 571.9 529.999 572.55 528.599 572.55C527.499 572.55 526.599 571.85 525.899 570.65C522.299 573.6 518.499 575.2 515.349 575.2C512.849 575.2 511.199 573.65 511.199 570.65C511.199 564.15 517.099 558 523.899 554.6C524.099 552.55 524.449 550.4 524.749 548.35C523.149 548.55 521.549 548.65 520.049 548.65C515.949 548.65 514.249 546.4 513.099 542.6L513.649 542.1C516.149 543.75 518.099 544.5 520.899 544.5C522.449 544.5 523.949 544.4 525.399 544.2C525.649 542.35 525.849 540.75 525.849 539.75C525.849 538.85 525.649 538.55 524.799 538.25C524.049 537.95 522.999 537.7 521.999 537.5L521.949 536.8C522.999 536.25 524.499 535.55 525.499 535.55C528.399 535.55 531.949 537.25 531.949 538.55C531.949 539.85 530.649 540.45 530.199 542.3L529.949 543.4C535.499 542.05 538.749 539.95 539.349 539.95C541.999 539.95 543.449 540.75 543.449 542.2C543.449 543.35 542.799 544.05 541.499 544.55C539.149 545.45 534.199 546.85 528.899 547.75C528.549 549.45 528.249 551.2 527.999 552.85C530.399 552.05 532.949 551.55 535.649 551.45C535.649 550.4 534.999 549.55 533.649 548.65Z" fill="white"/>
<path d="M470.498 534.3L478.748 535.1C478.648 535.85 478.198 536.35 476.898 536.5C477.948 555.75 482.648 567.4 499.748 573.7L499.648 574.3C496.648 574.85 494.748 576.9 494.098 580.15C481.498 573.45 477.748 561.7 476.498 545.75C475.598 558.6 471.998 571.4 453.198 580.4L452.648 579.7C470.948 566.35 470.448 550.2 470.498 534.3Z" fill="white"/>
<path d="M624.049 841.05L624.699 841C628.399 849.95 626.349 855.95 623.649 858.75C621.849 860.8 619.049 860.8 617.799 858.95C616.749 857.35 617.449 855.6 618.849 854.35C621.599 852.4 624.249 847.15 624.049 841.05ZM631.549 826.45C654.349 827.8 648.999 841.85 642.749 838.2C641.399 835.2 637.599 830.45 631.349 827.05L631.549 826.45ZM652.699 840.55C672.149 849.2 662.899 864.25 657.899 857.55C657.999 852.95 656.849 845.85 652.299 840.95L652.699 840.55ZM630.649 836.8L638.249 837.55C638.149 838.2 637.699 838.7 636.499 838.9V863.3C636.499 864.45 637.049 864.8 639.099 864.8H644.749C646.799 864.8 648.499 864.8 649.349 864.7C650.149 864.65 650.549 864.45 650.949 863.85C651.599 862.8 652.499 859.9 653.599 856.15H654.149L654.299 864.2C656.099 864.9 656.599 865.6 656.599 866.75C656.599 869.5 654.099 870.75 644.199 870.75H638.099C632.449 870.75 630.649 869.7 630.649 865.05V836.8Z" fill="white"/>
<path d="M584.152 839.15C584.152 837.5 583.452 836 582.602 834.85C579.352 835.75 576.202 837.6 573.802 840.15C570.902 843.35 569.302 846.75 569.302 850.85C569.302 854.8 571.002 858.5 573.102 858.5C575.902 858.5 580.302 851.6 581.902 848.15C583.202 845.25 584.152 841.8 584.152 839.15ZM583.652 868.9L583.452 867.95C596.102 864.95 600.852 858 600.852 849.35C600.852 840.15 594.952 834.25 586.852 834.25C586.202 834.25 585.502 834.3 584.852 834.4C586.352 835.95 588.152 838.4 588.152 840.75C588.152 843.3 587.652 846.6 586.502 849.65C584.252 856 578.652 865.1 572.552 865.1C568.552 865.1 564.852 858.95 564.852 852.45C564.852 847.8 567.152 841.85 572.202 837.6C576.252 834.1 581.302 832.25 587.402 832.25C598.902 832.25 607.052 840.25 607.052 850.65C607.052 860.1 600.452 868.2 583.652 868.9Z" fill="white"/>
<path d="M508.801 843.2L509.501 842.85C510.201 843.7 511.501 844.75 512.851 844.75C513.501 844.75 514.301 844.6 515.901 843.8C521.851 841.25 529.401 836.4 537.601 836.4C546.801 836.4 552.501 842.6 552.501 849.25C552.501 855.95 548.501 860 543.401 862.7C538.001 865.6 529.151 866.2 521.801 865.65L521.651 864.5C528.601 863.7 534.001 862.6 539.151 859.5C543.501 857.05 546.351 853.45 546.351 848.45C546.351 843.55 543.151 839.15 537.451 839.15C530.851 839.15 523.551 845.6 520.701 847.85C518.001 850 516.901 851.4 515.051 851.4C513.001 851.4 510.001 849.1 509.201 846.95C508.701 845.75 508.801 844.3 508.801 843.2Z" fill="white"/>
<path d="M469.398 836.25L468.648 846.85C471.048 845.75 473.798 845.15 476.748 845.15C486.198 845.15 489.998 850.15 489.998 856.55C489.998 863.6 484.748 868.9 474.648 868.9C467.948 868.9 463.398 865.9 462.898 860.5C463.398 859.05 464.648 858.4 465.848 858.4C467.748 858.4 468.848 859.45 469.148 862L469.898 866.35C471.048 866.8 472.198 867 474.148 867C478.898 867 482.348 863.35 482.348 856.9C482.348 851.25 479.348 848 474.148 848C471.598 848 469.598 848.45 467.298 849.6L466.098 848.9L467.298 830.5H488.648V836.25H469.398Z" fill="white"/>
<defs>
<filter id="filter0_d_205_2944" x="12" y="49" width="2404" height="890" filterUnits="userSpaceOnUse" color-interpolation-filters="sRGB">
<feFlood flood-opacity="0" result="BackgroundImageFix"/>
<feColorMatrix in="SourceAlpha" type="matrix" values="0 0 0 0 0 0 0 0 0 0 0 0 0 0 0 0 0 0 127 0" result="hardAlpha"/>
<feOffset dx="5" dy="5"/>
<feGaussianBlur stdDeviation="7.5"/>
<feComposite in2="hardAlpha" operator="out"/>
<feColorMatrix type="matrix" values="0 0 0 0 0 0 0 0 0 0 0 0 0 0 0 0 0 0 0.25 0"/>
<feBlend mode="normal" in2="BackgroundImageFix" result="effect1_dropShadow_205_2944"/>
<feBlend mode="normal" in="SourceGraphic" in2="effect1_dropShadow_205_2944" result="shape"/>
</filter>
</defs>
</svg>
