<svg width="92" height="51" viewBox="0 0 92 51" fill="none" xmlns="http://www.w3.org/2000/svg">
<path d="M52.5986 49.6675V0.67041H71.9295C75.6298 0.67041 78.7878 1.33232 81.4035 2.65613C84.0352 3.96399 86.0369 5.82212 87.4085 8.23051C88.7962 10.6229 89.49 13.438 89.49 16.6758C89.49 19.9295 88.7882 22.7287 87.3846 25.0732C85.9811 27.4019 83.9475 29.1882 81.2839 30.4323C78.6363 31.6764 75.4304 32.2984 71.6663 32.2984H58.7233V23.9727H69.9916C71.9694 23.9727 73.6122 23.7016 74.92 23.1593C76.2279 22.617 77.2008 21.8036 77.8388 20.719C78.4927 19.6344 78.8197 18.2867 78.8197 16.6758C78.8197 15.0489 78.4927 13.6773 77.8388 12.5608C77.2008 11.4443 76.2199 10.599 74.8961 10.0248C73.5883 9.43469 71.9375 9.13963 69.9438 9.13963H62.9579V49.6675H52.5986ZM79.059 27.37L91.2364 49.6675H79.8006L67.8863 27.37H79.059Z" fill="#C11313"/>
<path d="M33.8378 16.5083C33.5029 15.344 33.0324 14.3152 32.4263 13.422C31.8202 12.5129 31.0786 11.7473 30.2013 11.1253C29.3401 10.4873 28.3512 10.0009 27.2347 9.66592C26.1342 9.33098 24.9141 9.16351 23.5743 9.16351C21.0702 9.16351 18.8692 9.78554 16.9712 11.0296C15.0891 12.2737 13.6218 14.0839 12.5691 16.4604C11.5164 18.821 10.9901 21.7078 10.9901 25.121C10.9901 28.5343 11.5085 31.4371 12.5452 33.8295C13.5819 36.2219 15.0493 38.0482 16.9472 39.3082C18.8452 40.5522 21.0862 41.1743 23.67 41.1743C26.0146 41.1743 28.0162 40.7596 29.675 39.9302C31.3497 39.0849 32.6257 37.8966 33.5029 36.3655C34.3961 34.8343 34.8427 33.024 34.8427 30.9347L36.948 31.2457H24.3159V23.4463H44.8191V29.6188C44.8191 33.9252 43.91 37.6255 42.0917 40.7197C40.2735 43.798 37.7694 46.1745 34.5795 47.8492C31.3896 49.5079 27.7371 50.3373 23.6221 50.3373C19.0287 50.3373 14.9934 49.3245 11.5164 47.2989C8.03942 45.2574 5.328 42.3625 3.38215 38.6144C1.45225 34.8503 0.487305 30.3844 0.487305 25.2167C0.487305 21.2453 1.06149 17.7045 2.20986 14.5943C3.37417 11.4682 5.00103 8.82059 7.09042 6.65145C9.17981 4.48231 11.6121 2.83153 14.3873 1.69912C17.1626 0.566697 20.1691 0.000488281 23.4068 0.000488281C26.182 0.000488281 28.7659 0.407198 31.1583 1.22063C33.5507 2.0181 35.672 3.15052 37.5222 4.61788C39.3883 6.08524 40.9115 7.83172 42.0917 9.85731C43.272 11.867 44.0296 14.0839 44.3645 16.5083H33.8378Z" fill="#C11313"/>
</svg>
