<svg width="743" height="52" viewBox="0 0 743 52" fill="none" xmlns="http://www.w3.org/2000/svg">
<path d="M731.954 15.6538C731.762 13.7239 730.941 12.2246 729.49 11.156C728.038 10.0874 726.068 9.55307 723.58 9.55307C721.89 9.55307 720.462 9.79231 719.298 10.2708C718.134 10.7333 717.24 11.3793 716.618 12.2087C716.012 13.038 715.709 13.9791 715.709 15.0317C715.677 15.909 715.861 16.6745 716.26 17.3285C716.674 17.9824 717.24 18.5486 717.958 19.0271C718.676 19.4896 719.505 19.8964 720.446 20.2472C721.387 20.5822 722.392 20.8693 723.461 21.1085L727.863 22.1612C730 22.6397 731.962 23.2777 733.748 24.0751C735.535 24.8726 737.082 25.8535 738.389 27.0178C739.697 28.1822 740.71 29.5538 741.428 31.1328C742.162 32.7118 742.536 34.5221 742.552 36.5636C742.536 39.5622 741.771 42.1619 740.256 44.363C738.756 46.5481 736.587 48.2467 733.748 49.4589C730.925 50.6551 727.52 51.2532 723.533 51.2532C719.577 51.2532 716.132 50.6471 713.197 49.4349C710.278 48.2228 707.998 46.4284 706.355 44.052C704.728 41.6595 703.875 38.7009 703.795 35.176H713.819C713.931 36.8188 714.401 38.1905 715.231 39.291C716.076 40.3756 717.201 41.197 718.604 41.7552C720.024 42.2975 721.627 42.5687 723.413 42.5687C725.167 42.5687 726.69 42.3135 727.982 41.8031C729.29 41.2927 730.303 40.5829 731.021 39.6738C731.739 38.7647 732.097 37.72 732.097 36.5397C732.097 35.4392 731.77 34.5141 731.117 33.7645C730.479 33.0149 729.537 32.3769 728.293 31.8505C727.065 31.3242 725.558 30.8457 723.772 30.4151L718.437 29.0753C714.306 28.0705 711.044 26.4995 708.652 24.3622C706.259 22.225 705.071 19.3461 705.087 15.7255C705.071 12.7589 705.86 10.1671 707.455 7.95014C709.066 5.73315 711.275 4.00262 714.082 2.75856C716.889 1.51449 720.079 0.892456 723.652 0.892456C727.289 0.892456 730.463 1.51449 733.174 2.75856C735.901 4.00262 738.023 5.73315 739.538 7.95014C741.053 10.1671 741.835 12.735 741.882 15.6538H731.954Z" fill="#C11313"/>
<path d="M664.122 50.5594V1.56238H697.138V10.1034H674.481V21.7784H695.439V30.3194H674.481V42.0184H697.233V50.5594H664.122Z" fill="#C11313"/>
<path d="M625.897 50.5594V1.56238H636.257V42.0184H657.262V50.5594H625.897Z" fill="#C11313"/>
<path d="M583.945 50.5594H572.844L589.758 1.56238H603.108L619.999 50.5594H608.898L596.625 12.759H596.242L583.945 50.5594ZM583.251 31.3003H609.472V39.3868H583.251V31.3003Z" fill="#C11313"/>
<path d="M559.052 15.6538C558.861 13.7239 558.04 12.2246 556.588 11.156C555.137 10.0874 553.167 9.55307 550.679 9.55307C548.988 9.55307 547.561 9.79231 546.396 10.2708C545.232 10.7333 544.339 11.3793 543.717 12.2087C543.111 13.038 542.808 13.9791 542.808 15.0317C542.776 15.909 542.959 16.6745 543.358 17.3285C543.773 17.9824 544.339 18.5486 545.057 19.0271C545.774 19.4896 546.604 19.8964 547.545 20.2472C548.486 20.5822 549.491 20.8693 550.559 21.1085L554.961 22.1612C557.099 22.6397 559.06 23.2777 560.847 24.0751C562.633 24.8726 564.18 25.8535 565.488 27.0178C566.796 28.1822 567.809 29.5538 568.527 31.1328C569.26 32.7118 569.635 34.5221 569.651 36.5636C569.635 39.5622 568.869 42.1619 567.354 44.363C565.855 46.5481 563.686 48.2467 560.847 49.4589C558.024 50.6551 554.619 51.2532 550.631 51.2532C546.676 51.2532 543.231 50.6471 540.296 49.4349C537.377 48.2228 535.096 46.4284 533.453 44.052C531.827 41.6595 530.973 38.7009 530.894 35.176H540.918C541.029 36.8188 541.5 38.1905 542.329 39.291C543.175 40.3756 544.299 41.197 545.703 41.7552C547.122 42.2975 548.725 42.5687 550.512 42.5687C552.266 42.5687 553.789 42.3135 555.081 41.8031C556.389 41.2927 557.402 40.5829 558.119 39.6738C558.837 38.7647 559.196 37.72 559.196 36.5397C559.196 35.4392 558.869 34.5141 558.215 33.7645C557.577 33.0149 556.636 32.3769 555.392 31.8505C554.164 31.3242 552.657 30.8457 550.87 30.4151L545.535 29.0753C541.404 28.0705 538.143 26.4995 535.75 24.3622C533.358 22.225 532.169 19.3461 532.185 15.7255C532.169 12.7589 532.959 10.1671 534.554 7.95014C536.165 5.73315 538.374 4.00262 541.181 2.75856C543.988 1.51449 547.178 0.892456 550.751 0.892456C554.387 0.892456 557.561 1.51449 560.273 2.75856C563 4.00262 565.121 5.73315 566.637 7.95014C568.152 10.1671 568.933 12.735 568.981 15.6538H559.052Z" fill="#C11313"/>
<path d="M472.668 50.5594V1.56238H491.999C495.699 1.56238 498.857 2.22429 501.473 3.5481C504.105 4.85596 506.106 6.71409 507.478 9.12247C508.865 11.5149 509.559 14.33 509.559 17.5678C509.559 20.8215 508.858 23.6206 507.454 25.9652C506.05 28.2938 504.017 30.0802 501.353 31.3243C498.706 32.5683 495.5 33.1904 491.736 33.1904H478.793V24.8647H490.061C492.039 24.8647 493.682 24.5935 494.989 24.0513C496.297 23.509 497.27 22.6955 497.908 21.611C498.562 20.5264 498.889 19.1787 498.889 17.5678C498.889 15.9409 498.562 14.5692 497.908 13.4528C497.27 12.3363 496.289 11.491 494.965 10.9168C493.658 10.3267 492.007 10.0316 490.013 10.0316H483.027V50.5594H472.668ZM499.128 28.2619L511.306 50.5594H499.87L487.956 28.2619H499.128Z" fill="#C11313"/>
<path d="M375.337 10.1034V1.56238H415.578V10.1034H400.577V50.5594H390.337V10.1034H375.337Z" fill="#C11313"/>
<path d="M265.095 1.56238H277.87L291.364 34.4823H291.938L305.431 1.56238H318.207V50.5594H308.159V18.6683H307.752L295.072 50.3202H288.23L275.55 18.5487H275.143V50.5594H265.095V1.56238Z" fill="#C11313"/>
<path d="M207.549 50.5594H196.448L213.363 1.56238H226.713L243.603 50.5594H232.502L220.229 12.759H219.846L207.549 50.5594ZM206.855 31.3003H233.076V39.3868H206.855V31.3003Z" fill="#C11313"/>
<path d="M170.223 50.5594H152.854V1.56238H170.366C175.295 1.56238 179.537 2.54328 183.094 4.50507C186.651 6.45092 189.386 9.25006 191.3 12.9025C193.23 16.555 194.195 20.9251 194.195 26.0131C194.195 31.1169 193.23 35.503 191.3 39.1714C189.386 42.8398 186.635 45.6549 183.046 47.6167C179.473 49.5785 175.199 50.5594 170.223 50.5594ZM163.213 41.6835H169.792C172.854 41.6835 175.43 41.1412 177.519 40.0566C179.625 38.9561 181.204 37.2575 182.257 34.9608C183.325 32.6481 183.859 29.6655 183.859 26.0131C183.859 22.3925 183.325 19.4339 182.257 17.1371C181.204 14.8404 179.633 13.1497 177.543 12.0652C175.454 10.9806 172.878 10.4383 169.816 10.4383H163.213V41.6835Z" fill="#C11313"/>
<path d="M144.294 1.56238V50.5594H135.346L114.03 19.721H113.671V50.5594H103.312V1.56238H112.403L133.552 32.3769H133.983V1.56238H144.294Z" fill="#C11313"/>
<path d="M0.34668 50.5594V1.56238H10.7059V21.7784H31.7354V1.56238H42.0707V50.5594H31.7354V30.3194H10.7059V50.5594H0.34668Z" fill="#C11313"/>
<circle cx="72.2061" cy="25.7871" r="19.3691" stroke="#C11313" stroke-width="10.1056"/>
<circle cx="348.944" cy="26.1375" r="19.3691" stroke="#C11313" stroke-width="10.1056"/>
<circle cx="441.579" cy="26.1375" r="19.3691" stroke="#C11313" stroke-width="10.1056"/>
</svg>
