<svg width="87" height="51" viewBox="0 0 87 51" fill="none" xmlns="http://www.w3.org/2000/svg">
<path d="M49.6582 49.6675V0.67041H68.9891C72.7053 0.67041 75.8713 1.38017 78.487 2.79968C81.1027 4.20324 83.0965 6.15706 84.4681 8.66114C85.8557 11.1493 86.5495 14.0202 86.5495 17.2739C86.5495 20.5276 85.8478 23.3985 84.4442 25.8867C83.0406 28.3748 81.0071 30.3127 78.3435 31.7003C75.6959 33.0879 72.49 33.7817 68.7259 33.7817H56.4049V25.48H67.0512C69.0449 25.48 70.6877 25.137 71.9796 24.4512C73.2875 23.7494 74.2604 22.7845 74.8984 21.5564C75.5523 20.3123 75.8793 18.8848 75.8793 17.2739C75.8793 15.647 75.5523 14.2275 74.8984 13.0154C74.2604 11.7873 73.2875 10.8383 71.9796 10.1684C70.6717 9.48254 69.013 9.13963 67.0033 9.13963H60.0174V49.6675H49.6582Z" fill="#C11313"/>
<path d="M30.775 0.67041H41.1343V32.4898C41.1343 36.0625 40.281 39.1886 38.5744 41.8681C36.8837 44.5476 34.5152 46.637 31.4688 48.1363C28.4225 49.6196 24.8737 50.3613 20.8225 50.3613C16.7554 50.3613 13.1986 49.6196 10.1522 48.1363C7.10587 46.637 4.73737 44.5476 3.04671 41.8681C1.35606 39.1886 0.510742 36.0625 0.510742 32.4898V0.67041H10.87V31.6046C10.87 33.4707 11.2767 35.1294 12.0901 36.5808C12.9195 38.0322 14.0838 39.1726 15.5831 40.002C17.0823 40.8314 18.8288 41.2461 20.8225 41.2461C22.8321 41.2461 24.5786 40.8314 26.0619 40.002C27.5612 39.1726 28.7175 38.0322 29.531 36.5808C30.3603 35.1294 30.775 33.4707 30.775 31.6046V0.67041Z" fill="#C11313"/>
</svg>
